# MagicaVoxel @ Ephtracy

# group
o 

# material
mtllib Brick_Wall_Window.mtl
usemtl palette

# normals
vn -1 0 0
vn 1 0 0
vn 0 0 1
vn 0 0 -1
vn 0 -1 0
vn 0 1 0

# texcoords
vt 0.00195313 0.5
vt 0.00585938 0.5
vt 0.00976563 0.5
vt 0.0136719 0.5
vt 0.0214844 0.5
vt 0.0996094 0.5
vt 0.111328 0.5

# verts
v -1.6 0 0.1
v -1.6 0 -0.1
v -1.6 0.1 0.1
v -1.6 0.1 -0.1
v -1.6 0.2 0.1
v -1.6 0.2 -0.1
v -1.6 0.6 0.1
v -1.6 0.6 -0.1
v -1.6 0.7 0.1
v -1.6 0.7 0
v -1.6 0.7 -0.1
v -1.6 1.1 0.1
v -1.6 1.1 0
v -1.6 1.1 -0.1
v -1.6 1.2 0.1
v -1.6 1.2 0
v -1.6 1.2 -0.1
v -1.6 1.6 0.1
v -1.6 1.6 0
v -1.6 1.6 -0.1
v -1.6 1.7 0.1
v -1.6 1.7 0
v -1.6 1.7 -0.1
v -1.6 2.1 0.1
v -1.6 2.1 0
v -1.6 2.1 -0.1
v -1.6 2.2 0.1
v -1.6 2.2 -0.1
v -1.6 2.6 0.1
v -1.6 2.6 -0.1
v -1.6 2.7 0.1
v -1.6 2.7 -0.1
v -1.6 3.1 0.1
v -1.6 3.1 -0.1
v -1.6 3.2 0.1
v -1.6 3.2 -0.1
v -1.1 1.2 0.1
v -1.1 1.2 0
v -1.1 1.6 0.1
v -1.1 1.6 0
v -1 1.7 0.1
v -1 1.7 0
v -1 2.1 0.1
v -1 2.1 0
v -0.8 0.7 0.1
v -0.8 0.7 0
v -0.8 1.1 0.1
v -0.8 1.1 0
v -0.2 0.2 0.1
v -0.2 0.2 0
v -0.2 0.6 0.1
v -0.2 0.6 0
v 0.1 2.7 0.1
v 0.1 2.7 0
v 0.1 3.1 0.1
v 0.1 3.1 0
v -1 0.2 0.1
v -1 0.2 0
v -1 0.6 0.1
v -1 0.6 0
v -0.7 2.7 0.1
v -0.7 2.7 0
v -0.7 3.1 0.1
v -0.7 3.1 0
v 0.8 0.2 0.1
v 0.8 0.2 0
v 0.8 0.6 0.1
v 0.8 0.6 0
v 1 1.2 0.1
v 1 1.2 0
v 1 1.6 0.1
v 1 1.6 0
v 1.1 2.7 0.1
v 1.1 2.7 0
v 1.1 3.1 0.1
v 1.1 3.1 0
v 1.6 0 0.1
v 1.6 0 -0.1
v 1.6 0.1 0.1
v 1.6 0.1 -0.1
v 1.6 0.2 0.1
v 1.6 0.2 0
v 1.6 0.2 -0.1
v 1.6 0.6 0.1
v 1.6 0.6 0
v 1.6 0.6 -0.1
v 1.6 0.7 0.1
v 1.6 0.7 -0.1
v 1.6 1.1 0.1
v 1.6 1.1 -0.1
v 1.6 1.2 0.1
v 1.6 1.2 0
v 1.6 1.2 -0.1
v 1.6 1.6 0.1
v 1.6 1.6 0
v 1.6 1.6 -0.1
v 1.6 1.7 0.1
v 1.6 1.7 -0.1
v 1.6 2.1 0.1
v 1.6 2.1 -0.1
v 1.6 2.2 0.1
v 1.6 2.2 -0.1
v 1.6 2.6 0.1
v 1.6 2.6 -0.1
v 1.6 2.7 0.1
v 1.6 2.7 0
v 1.6 2.7 -0.1
v 1.6 3.1 0.1
v 1.6 3.1 0
v 1.6 3.1 -0.1
v 1.6 3.2 0.1
v 1.6 3.2 -0.1
v -1.6 0 0.1
v -1.6 0.1 0.1
v -1.6 0.2 0.1
v -1.6 0.6 0.1
v -1.6 0.7 0.1
v -1.6 1.1 0.1
v -1.6 1.2 0.1
v -1.6 1.6 0.1
v -1.6 1.7 0.1
v -1.6 2.1 0.1
v -1.6 2.2 0.1
v -1.6 2.6 0.1
v -1.6 2.7 0.1
v -1.6 3.1 0.1
v -1.6 3.2 0.1
v -1.1 0.2 0.1
v -1.1 0.6 0.1
v -1.1 1.2 0.1
v -1.1 1.6 0.1
v -1.1 2.2 0.1
v -1.1 2.6 0.1
v -1 0.2 0.1
v -1 0.6 0.1
v -1 1.2 0.1
v -1 1.6 0.1
v -1 1.7 0.1
v -1 2.1 0.1
v -1 2.2 0.1
v -1 2.6 0.1
v -0.9 0.1 0.1
v -0.9 0.2 0.1
v -0.9 1.3 0.1
v -0.9 2.5 0.1
v -0.8 0 0.1
v -0.8 0.1 0.1
v -0.8 0.7 0.1
v -0.8 1.1 0.1
v -0.8 2.7 0.1
v -0.8 3.1 0.1
v -0.7 0 0.1
v -0.7 0.1 0.1
v -0.7 0.7 0.1
v -0.7 1.1 0.1
v -0.7 2.7 0.1
v -0.7 3.1 0.1
v -0.2 0.2 0.1
v -0.2 0.6 0.1
v -0.2 2.6 0.1
v -0.2 2.7 0.1
v -0.1 0.2 0.1
v -0.1 0.6 0.1
v 0.1 0 0.1
v 0.1 0.1 0.1
v 0.1 0.7 0.1
v 0.1 1.1 0.1
v 0.1 2.7 0.1
v 0.1 3.1 0.1
v 0.2 0 0.1
v 0.2 0.1 0.1
v 0.2 0.7 0.1
v 0.2 1.1 0.1
v 0.2 2.7 0.1
v 0.2 3.1 0.1
v 0.6 2.6 0.1
v 0.6 2.7 0.1
v 0.7 0.2 0.1
v 0.7 0.6 0.1
v 0.8 0.2 0.1
v 0.8 0.6 0.1
v 0.9 1.3 0.1
v 0.9 2.5 0.1
v 1 0 0.1
v 1 0.1 0.1
v 1 0.7 0.1
v 1 0.8 0.1
v 1 1.1 0.1
v 1 1.2 0.1
v 1 1.6 0.1
v 1 2.1 0.1
v 1 2.2 0.1
v 1 2.6 0.1
v 1 2.7 0.1
v 1 3.1 0.1
v 1.1 0 0.1
v 1.1 0.1 0.1
v 1.1 0.7 0.1
v 1.1 0.8 0.1
v 1.1 1.1 0.1
v 1.1 1.7 0.1
v 1.1 2.1 0.1
v 1.1 2.7 0.1
v 1.1 3.1 0.1
v 1.2 2.1 0.1
v 1.2 2.2 0.1
v 1.4 1.1 0.1
v 1.4 1.2 0.1
v 1.6 0 0.1
v 1.6 0.1 0.1
v 1.6 0.2 0.1
v 1.6 0.6 0.1
v 1.6 0.7 0.1
v 1.6 1.1 0.1
v 1.6 1.2 0.1
v 1.6 1.6 0.1
v 1.6 1.7 0.1
v 1.6 2.1 0.1
v 1.6 2.2 0.1
v 1.6 2.6 0.1
v 1.6 2.7 0.1
v 1.6 3.1 0.1
v 1.6 3.2 0.1
v -1.6 0.7 0
v -1.6 1.1 0
v -1.6 1.2 0
v -1.6 1.6 0
v -1.6 1.7 0
v -1.6 2.1 0
v -1.1 1.2 0
v -1.1 1.6 0
v -1 0.2 0
v -1 0.6 0
v -1 1.7 0
v -1 2.1 0
v -0.9 0.2 0
v -0.8 0.7 0
v -0.8 1.1 0
v -0.7 2.7 0
v -0.7 3.1 0
v -0.2 0.2 0
v -0.2 0.6 0
v -0.2 2.7 0
v 0.1 2.7 0
v 0.1 3.1 0
v 0.8 0.2 0
v 0.8 0.6 0
v 1 1.2 0
v 1 1.6 0
v 1.1 2.7 0
v 1.1 3.1 0
v 1.4 1.2 0
v 1.6 0.2 0
v 1.6 0.6 0
v 1.6 1.2 0
v 1.6 1.6 0
v 1.6 2.7 0
v 1.6 3.1 0
v -1.6 0 -0.1
v -1.6 0.1 -0.1
v -1.6 0.2 -0.1
v -1.6 0.6 -0.1
v -1.6 0.7 -0.1
v -1.6 1.1 -0.1
v -1.6 1.2 -0.1
v -1.6 1.6 -0.1
v -1.6 1.7 -0.1
v -1.6 2.1 -0.1
v -1.6 2.2 -0.1
v -1.6 2.6 -0.1
v -1.6 2.7 -0.1
v -1.6 3.1 -0.1
v -1.6 3.2 -0.1
v -1.1 0.2 -0.1
v -1.1 0.6 -0.1
v -1.1 1.2 -0.1
v -1.1 1.6 -0.1
v -1.1 2.2 -0.1
v -1.1 2.6 -0.1
v -1 0.2 -0.1
v -1 0.6 -0.1
v -1 1.2 -0.1
v -1 1.6 -0.1
v -1 1.7 -0.1
v -1 2.1 -0.1
v -1 2.2 -0.1
v -1 2.6 -0.1
v -0.9 0.1 -0.1
v -0.9 0.2 -0.1
v -0.9 1.3 -0.1
v -0.9 2.5 -0.1
v -0.8 0 -0.1
v -0.8 0.1 -0.1
v -0.8 0.7 -0.1
v -0.8 1.1 -0.1
v -0.8 2.7 -0.1
v -0.8 3.1 -0.1
v -0.7 0 -0.1
v -0.7 0.1 -0.1
v -0.7 0.7 -0.1
v -0.7 1.1 -0.1
v -0.7 2.7 -0.1
v -0.7 3.1 -0.1
v -0.2 0.2 -0.1
v -0.2 0.6 -0.1
v -0.2 2.6 -0.1
v -0.2 2.7 -0.1
v -0.1 0.2 -0.1
v -0.1 0.6 -0.1
v 0.1 0 -0.1
v 0.1 0.1 -0.1
v 0.1 0.7 -0.1
v 0.1 1.1 -0.1
v 0.1 2.7 -0.1
v 0.1 3.1 -0.1
v 0.2 0 -0.1
v 0.2 0.1 -0.1
v 0.2 0.7 -0.1
v 0.2 1.1 -0.1
v 0.2 2.7 -0.1
v 0.2 3.1 -0.1
v 0.6 2.6 -0.1
v 0.6 2.7 -0.1
v 0.7 0.2 -0.1
v 0.7 0.6 -0.1
v 0.8 0.2 -0.1
v 0.8 0.6 -0.1
v 0.9 1.3 -0.1
v 0.9 2.5 -0.1
v 1 0 -0.1
v 1 0.1 -0.1
v 1 0.7 -0.1
v 1 0.8 -0.1
v 1 1.1 -0.1
v 1 1.2 -0.1
v 1 1.6 -0.1
v 1 2.1 -0.1
v 1 2.2 -0.1
v 1 2.6 -0.1
v 1 2.7 -0.1
v 1 3.1 -0.1
v 1.1 0 -0.1
v 1.1 0.1 -0.1
v 1.1 0.7 -0.1
v 1.1 0.8 -0.1
v 1.1 1.1 -0.1
v 1.1 1.7 -0.1
v 1.1 2.1 -0.1
v 1.1 2.7 -0.1
v 1.1 3.1 -0.1
v 1.2 2.1 -0.1
v 1.2 2.2 -0.1
v 1.4 1.1 -0.1
v 1.4 1.2 -0.1
v 1.6 0 -0.1
v 1.6 0.1 -0.1
v 1.6 0.2 -0.1
v 1.6 0.6 -0.1
v 1.6 0.7 -0.1
v 1.6 1.1 -0.1
v 1.6 1.2 -0.1
v 1.6 1.6 -0.1
v 1.6 1.7 -0.1
v 1.6 2.1 -0.1
v 1.6 2.2 -0.1
v 1.6 2.6 -0.1
v 1.6 2.7 -0.1
v 1.6 3.1 -0.1
v 1.6 3.2 -0.1
v -1.6 0 0.1
v -0.8 0 0.1
v -0.7 0 0.1
v 0.1 0 0.1
v 0.2 0 0.1
v 1 0 0.1
v 1.1 0 0.1
v 1.6 0 0.1
v -1.6 0 -0.1
v -0.8 0 -0.1
v -0.7 0 -0.1
v 0.1 0 -0.1
v 0.2 0 -0.1
v 1 0 -0.1
v 1.1 0 -0.1
v 1.6 0 -0.1
v -1 0.6 0.1
v -0.2 0.6 0.1
v 0.8 0.6 0.1
v 1.6 0.6 0.1
v -1 0.6 0
v -0.2 0.6 0
v 0.8 0.6 0
v 1.6 0.6 0
v -1.6 1.1 0.1
v -0.8 1.1 0.1
v -1.6 1.1 0
v -0.8 1.1 0
v -1.6 1.6 0.1
v -1.1 1.6 0.1
v 1 1.6 0.1
v 1.6 1.6 0.1
v -1.6 1.6 0
v -1.1 1.6 0
v 1 1.6 0
v 1.6 1.6 0
v -1.6 2.1 0.1
v -1 2.1 0.1
v -1.6 2.1 0
v -1 2.1 0
v -0.7 3.1 0.1
v 0.1 3.1 0.1
v 1.1 3.1 0.1
v 1.6 3.1 0.1
v -0.7 3.1 0
v 0.1 3.1 0
v 1.1 3.1 0
v 1.6 3.1 0
v -1 0.2 0.1
v -0.9 0.2 0.1
v -0.2 0.2 0.1
v 0.8 0.2 0.1
v 1.6 0.2 0.1
v -1 0.2 0
v -0.9 0.2 0
v -0.2 0.2 0
v 0.8 0.2 0
v 1.6 0.2 0
v -1.6 0.7 0.1
v -0.8 0.7 0.1
v -1.6 0.7 0
v -0.8 0.7 0
v -1.6 1.2 0.1
v -1.1 1.2 0.1
v 1 1.2 0.1
v 1.4 1.2 0.1
v 1.6 1.2 0.1
v -1.6 1.2 0
v -1.1 1.2 0
v 1 1.2 0
v 1.4 1.2 0
v 1.6 1.2 0
v -1.6 1.7 0.1
v -1 1.7 0.1
v -1.6 1.7 0
v -1 1.7 0
v -0.7 2.7 0.1
v -0.2 2.7 0.1
v 0.1 2.7 0.1
v 1.1 2.7 0.1
v 1.6 2.7 0.1
v -0.7 2.7 0
v -0.2 2.7 0
v 0.1 2.7 0
v 1.1 2.7 0
v 1.6 2.7 0
v -1.6 3.2 0.1
v 1.6 3.2 0.1
v -1.6 3.2 -0.1
v 1.6 3.2 -0.1

# faces
f 3/2/1 2/2/1 1/2/1
f 4/2/1 2/2/1 3/2/1
f 5/3/1 4/3/1 3/3/1
f 6/3/1 4/3/1 5/3/1
f 7/2/1 6/2/1 5/2/1
f 8/2/1 6/2/1 7/2/1
f 9/3/1 8/3/1 7/3/1
f 10/3/1 8/3/1 9/3/1
f 11/3/1 8/3/1 10/3/1
f 13/2/1 11/2/1 10/2/1
f 14/2/1 11/2/1 13/2/1
f 15/4/1 13/4/1 12/4/1
f 15/4/1 14/4/1 13/4/1
f 16/4/1 14/4/1 15/4/1
f 17/4/1 14/4/1 16/4/1
f 19/5/1 17/5/1 16/5/1
f 20/5/1 17/5/1 19/5/1
f 21/4/1 19/4/1 18/4/1
f 21/4/1 20/4/1 19/4/1
f 22/4/1 20/4/1 21/4/1
f 23/4/1 20/4/1 22/4/1
f 25/1/1 23/1/1 22/1/1
f 26/1/1 23/1/1 25/1/1
f 27/4/1 25/4/1 24/4/1
f 27/4/1 26/4/1 25/4/1
f 28/4/1 26/4/1 27/4/1
f 29/1/1 28/1/1 27/1/1
f 30/1/1 28/1/1 29/1/1
f 31/3/1 30/3/1 29/3/1
f 32/3/1 30/3/1 31/3/1
f 33/2/1 32/2/1 31/2/1
f 34/2/1 32/2/1 33/2/1
f 35/3/1 34/3/1 33/3/1
f 36/3/1 34/3/1 35/3/1
f 39/3/1 38/3/1 37/3/1
f 40/3/1 38/3/1 39/3/1
f 43/6/1 42/6/1 41/6/1
f 44/6/1 42/6/1 43/6/1
f 47/3/1 46/3/1 45/3/1
f 48/3/1 46/3/1 47/3/1
f 51/3/1 50/3/1 49/3/1
f 52/3/1 50/3/1 51/3/1
f 55/3/1 54/3/1 53/3/1
f 56/3/1 54/3/1 55/3/1
f 57/3/2 58/3/2 59/3/2
f 59/3/2 58/3/2 60/3/2
f 61/3/2 62/3/2 63/3/2
f 63/3/2 62/3/2 64/3/2
f 65/3/2 66/3/2 67/3/2
f 67/3/2 66/3/2 68/3/2
f 69/6/2 70/6/2 71/6/2
f 71/6/2 70/6/2 72/6/2
f 73/3/2 74/3/2 75/3/2
f 75/3/2 74/3/2 76/3/2
f 77/2/2 78/2/2 79/2/2
f 79/2/2 78/2/2 80/2/2
f 79/4/2 80/4/2 81/4/2
f 81/4/2 80/4/2 82/4/2
f 82/4/2 80/4/2 83/4/2
f 82/2/2 83/2/2 85/2/2
f 85/2/2 83/2/2 86/2/2
f 84/3/2 85/3/2 87/3/2
f 85/3/2 86/3/2 87/3/2
f 87/3/2 86/3/2 88/3/2
f 87/2/2 88/2/2 89/2/2
f 89/2/2 88/2/2 90/2/2
f 89/3/2 90/3/2 91/3/2
f 91/3/2 90/3/2 92/3/2
f 92/3/2 90/3/2 93/3/2
f 92/5/2 93/5/2 95/5/2
f 95/5/2 93/5/2 96/5/2
f 94/3/2 95/3/2 97/3/2
f 95/3/2 96/3/2 97/3/2
f 97/3/2 96/3/2 98/3/2
f 97/1/2 98/1/2 99/1/2
f 99/1/2 98/1/2 100/1/2
f 99/3/2 100/3/2 101/3/2
f 101/3/2 100/3/2 102/3/2
f 101/1/2 102/1/2 103/1/2
f 103/1/2 102/1/2 104/1/2
f 103/3/2 104/3/2 105/3/2
f 105/3/2 104/3/2 106/3/2
f 106/3/2 104/3/2 107/3/2
f 106/2/2 107/2/2 109/2/2
f 109/2/2 107/2/2 110/2/2
f 108/3/2 109/3/2 111/3/2
f 109/3/2 110/3/2 111/3/2
f 111/3/2 110/3/2 112/3/2
f 128/3/3 115/3/3 114/3/3
f 128/2/3 116/2/3 115/2/3
f 129/3/3 117/3/3 116/3/3
f 129/2/3 116/2/3 128/2/3
f 130/4/3 119/4/3 118/4/3
f 131/4/3 121/4/3 120/4/3
f 132/4/3 123/4/3 122/4/3
f 132/1/3 124/1/3 123/1/3
f 133/3/3 125/3/3 124/3/3
f 133/1/3 124/1/3 132/1/3
f 134/3/3 128/3/3 114/3/3
f 134/3/3 129/3/3 128/3/3
f 135/3/3 117/3/3 129/3/3
f 135/3/3 129/3/3 134/3/3
f 136/4/3 130/4/3 118/4/3
f 136/3/3 131/3/3 130/3/3
f 137/4/3 121/4/3 131/4/3
f 137/3/3 131/3/3 136/3/3
f 138/4/3 121/4/3 137/4/3
f 139/4/3 132/4/3 122/4/3
f 140/3/3 133/3/3 132/3/3
f 140/4/3 132/4/3 139/4/3
f 141/3/3 125/3/3 133/3/3
f 141/3/3 133/3/3 140/3/3
f 142/2/3 114/2/3 113/2/3
f 142/3/3 134/3/3 114/3/3
f 143/3/3 134/3/3 142/3/3
f 144/6/3 140/6/3 139/6/3
f 144/6/3 141/6/3 140/6/3
f 144/6/3 138/6/3 137/6/3
f 144/6/3 137/6/3 136/6/3
f 144/6/3 139/6/3 138/6/3
f 145/6/3 141/6/3 144/6/3
f 146/2/3 142/2/3 113/2/3
f 147/4/3 143/4/3 142/4/3
f 147/2/3 142/2/3 146/2/3
f 148/3/3 117/3/3 135/3/3
f 149/4/3 136/4/3 118/4/3
f 150/3/3 125/3/3 141/3/3
f 150/2/3 126/2/3 125/2/3
f 151/3/3 127/3/3 126/3/3
f 151/2/3 126/2/3 150/2/3
f 152/4/3 147/4/3 146/4/3
f 153/4/3 143/4/3 147/4/3
f 153/4/3 147/4/3 152/4/3
f 154/3/3 149/3/3 148/3/3
f 154/3/3 148/3/3 135/3/3
f 155/4/3 136/4/3 149/4/3
f 155/3/3 149/3/3 154/3/3
f 156/3/3 150/3/3 141/3/3
f 156/3/3 151/3/3 150/3/3
f 157/3/3 127/3/3 151/3/3
f 157/3/3 151/3/3 156/3/3
f 158/4/3 143/4/3 153/4/3
f 159/3/3 154/3/3 135/3/3
f 160/6/3 141/6/3 145/6/3
f 160/3/3 156/3/3 141/3/3
f 161/3/3 156/3/3 160/3/3
f 162/4/3 158/4/3 153/4/3
f 162/3/3 159/3/3 158/3/3
f 163/3/3 154/3/3 159/3/3
f 163/3/3 159/3/3 162/3/3
f 164/1/3 153/1/3 152/1/3
f 165/4/3 162/4/3 153/4/3
f 165/1/3 153/1/3 164/1/3
f 166/3/3 154/3/3 163/3/3
f 166/1/3 155/1/3 154/1/3
f 167/4/3 136/4/3 155/4/3
f 167/1/3 155/1/3 166/1/3
f 168/4/3 161/4/3 160/4/3
f 169/3/3 127/3/3 157/3/3
f 170/3/3 165/3/3 164/3/3
f 171/4/3 162/4/3 165/4/3
f 171/3/3 165/3/3 170/3/3
f 172/3/3 166/3/3 163/3/3
f 172/3/3 167/3/3 166/3/3
f 173/4/3 136/4/3 167/4/3
f 173/3/3 167/3/3 172/3/3
f 174/4/3 168/4/3 160/4/3
f 174/3/3 169/3/3 168/3/3
f 175/3/3 127/3/3 169/3/3
f 175/3/3 169/3/3 174/3/3
f 176/6/3 160/6/3 145/6/3
f 176/4/3 174/4/3 160/4/3
f 177/1/3 175/1/3 174/1/3
f 177/4/3 174/4/3 176/4/3
f 178/4/3 162/4/3 171/4/3
f 178/5/3 163/5/3 162/5/3
f 179/3/3 172/3/3 163/3/3
f 179/5/3 163/5/3 178/5/3
f 180/4/3 178/4/3 171/4/3
f 180/3/3 179/3/3 178/3/3
f 181/3/3 172/3/3 179/3/3
f 181/3/3 179/3/3 180/3/3
f 182/6/3 144/6/3 136/6/3
f 182/7/3 145/7/3 144/7/3
f 183/6/3 176/6/3 145/6/3
f 183/7/3 145/7/3 182/7/3
f 184/1/3 171/1/3 170/1/3
f 185/4/3 180/4/3 171/4/3
f 185/1/3 171/1/3 184/1/3
f 186/3/3 172/3/3 181/3/3
f 186/2/3 173/2/3 172/2/3
f 187/2/3 173/2/3 186/2/3
f 188/4/3 136/4/3 173/4/3
f 188/2/3 173/2/3 187/2/3
f 189/6/3 182/6/3 136/6/3
f 189/4/3 136/4/3 188/4/3
f 189/6/3 183/6/3 182/6/3
f 190/6/3 183/6/3 189/6/3
f 191/6/3 183/6/3 190/6/3
f 192/6/3 183/6/3 191/6/3
f 193/6/3 176/6/3 183/6/3
f 193/6/3 183/6/3 192/6/3
f 193/3/3 177/3/3 176/3/3
f 194/1/3 175/1/3 177/1/3
f 194/3/3 177/3/3 193/3/3
f 195/3/3 127/3/3 175/3/3
f 195/1/3 175/1/3 194/1/3
f 196/4/3 185/4/3 184/4/3
f 197/4/3 180/4/3 185/4/3
f 197/4/3 185/4/3 196/4/3
f 198/3/3 187/3/3 186/3/3
f 198/3/3 186/3/3 181/3/3
f 199/4/3 188/4/3 187/4/3
f 199/3/3 187/3/3 198/3/3
f 199/4/3 189/4/3 188/4/3
f 200/4/3 189/4/3 199/4/3
f 201/3/3 191/3/3 190/3/3
f 202/4/3 192/4/3 191/4/3
f 202/3/3 191/3/3 201/3/3
f 203/3/3 194/3/3 193/3/3
f 203/3/3 195/3/3 194/3/3
f 204/3/3 127/3/3 195/3/3
f 204/3/3 195/3/3 203/3/3
f 205/4/3 192/4/3 202/4/3
f 205/1/3 202/1/3 201/1/3
f 206/1/3 193/1/3 192/1/3
f 206/4/3 192/4/3 205/4/3
f 207/4/3 189/4/3 200/4/3
f 207/2/3 200/2/3 199/2/3
f 207/2/3 199/2/3 198/2/3
f 208/4/3 189/4/3 207/4/3
f 209/2/3 197/2/3 196/2/3
f 210/4/3 180/4/3 197/4/3
f 210/2/3 197/2/3 209/2/3
f 211/4/3 180/4/3 210/4/3
f 212/3/3 198/3/3 181/3/3
f 213/2/3 207/2/3 198/2/3
f 213/3/3 198/3/3 212/3/3
f 214/3/3 208/3/3 207/3/3
f 214/2/3 207/2/3 213/2/3
f 215/3/3 208/3/3 214/3/3
f 216/3/3 201/3/3 190/3/3
f 217/1/3 205/1/3 201/1/3
f 217/3/3 201/3/3 216/3/3
f 218/3/3 206/3/3 205/3/3
f 218/1/3 205/1/3 217/1/3
f 219/1/3 193/1/3 206/1/3
f 219/3/3 206/3/3 218/3/3
f 220/3/3 203/3/3 193/3/3
f 220/1/3 193/1/3 219/1/3
f 221/3/3 203/3/3 220/3/3
f 222/3/3 127/3/3 204/3/3
f 223/3/3 127/3/3 222/3/3
f 230/5/3 227/5/3 226/5/3
f 231/5/3 227/5/3 230/5/3
f 234/1/3 229/1/3 228/1/3
f 235/1/3 229/1/3 234/1/3
f 236/1/3 233/1/3 232/1/3
f 237/2/3 225/2/3 224/2/3
f 238/2/3 225/2/3 237/2/3
f 241/1/3 233/1/3 236/1/3
f 242/1/3 233/1/3 241/1/3
f 243/1/3 240/1/3 239/1/3
f 244/1/3 240/1/3 243/1/3
f 245/1/3 240/1/3 244/1/3
f 252/5/3 249/5/3 248/5/3
f 253/2/3 247/2/3 246/2/3
f 254/2/3 247/2/3 253/2/3
f 255/5/3 249/5/3 252/5/3
f 256/5/3 249/5/3 255/5/3
f 257/2/3 251/2/3 250/2/3
f 258/2/3 251/2/3 257/2/3
f 260/3/4 261/3/4 274/3/4
f 261/2/4 262/2/4 274/2/4
f 262/3/4 263/3/4 275/3/4
f 274/2/4 262/2/4 275/2/4
f 264/4/4 265/4/4 276/4/4
f 265/5/4 266/5/4 276/5/4
f 266/4/4 267/4/4 277/4/4
f 276/5/4 266/5/4 277/5/4
f 268/4/4 269/4/4 278/4/4
f 269/1/4 270/1/4 278/1/4
f 270/3/4 271/3/4 279/3/4
f 278/1/4 270/1/4 279/1/4
f 260/3/4 274/3/4 280/3/4
f 274/3/4 275/3/4 280/3/4
f 275/3/4 263/3/4 281/3/4
f 280/3/4 275/3/4 281/3/4
f 264/4/4 276/4/4 282/4/4
f 276/3/4 277/3/4 282/3/4
f 277/4/4 267/4/4 283/4/4
f 282/3/4 277/3/4 283/3/4
f 267/1/4 268/1/4 284/1/4
f 283/4/4 267/4/4 284/4/4
f 268/4/4 278/4/4 285/4/4
f 284/1/4 268/1/4 285/1/4
f 278/3/4 279/3/4 286/3/4
f 285/4/4 278/4/4 286/4/4
f 279/3/4 271/3/4 287/3/4
f 286/3/4 279/3/4 287/3/4
f 259/2/4 260/2/4 288/2/4
f 260/3/4 280/3/4 288/3/4
f 280/1/4 281/1/4 289/1/4
f 288/3/4 280/3/4 289/3/4
f 285/6/4 286/6/4 290/6/4
f 286/6/4 287/6/4 290/6/4
f 284/6/4 285/6/4 290/6/4
f 283/6/4 284/6/4 290/6/4
f 282/6/4 283/6/4 290/6/4
f 290/6/4 287/6/4 291/6/4
f 259/2/4 288/2/4 292/2/4
f 288/4/4 289/4/4 293/4/4
f 292/2/4 288/2/4 293/2/4
f 263/2/4 264/2/4 294/2/4
f 281/3/4 263/3/4 294/3/4
f 264/4/4 282/4/4 295/4/4
f 294/2/4 264/2/4 295/2/4
f 287/3/4 271/3/4 296/3/4
f 271/2/4 272/2/4 296/2/4
f 272/3/4 273/3/4 297/3/4
f 296/2/4 272/2/4 297/2/4
f 292/4/4 293/4/4 298/4/4
f 293/4/4 289/4/4 299/4/4
f 298/4/4 293/4/4 299/4/4
f 294/3/4 295/3/4 300/3/4
f 281/3/4 294/3/4 300/3/4
f 295/4/4 282/4/4 301/4/4
f 300/3/4 295/3/4 301/3/4
f 287/3/4 296/3/4 302/3/4
f 296/3/4 297/3/4 302/3/4
f 297/3/4 273/3/4 303/3/4
f 302/3/4 297/3/4 303/3/4
f 299/4/4 289/4/4 304/4/4
f 289/1/4 281/1/4 304/1/4
f 281/3/4 300/3/4 305/3/4
f 304/1/4 281/1/4 305/1/4
f 291/6/4 287/6/4 306/6/4
f 287/3/4 302/3/4 306/3/4
f 302/1/4 303/1/4 307/1/4
f 306/3/4 302/3/4 307/3/4
f 299/4/4 304/4/4 308/4/4
f 304/3/4 305/3/4 308/3/4
f 305/3/4 300/3/4 309/3/4
f 308/3/4 305/3/4 309/3/4
f 298/1/4 299/1/4 310/1/4
f 299/4/4 308/4/4 311/4/4
f 310/1/4 299/1/4 311/1/4
f 309/3/4 300/3/4 312/3/4
f 300/1/4 301/1/4 312/1/4
f 301/4/4 282/4/4 313/4/4
f 312/1/4 301/1/4 313/1/4
f 307/1/4 303/1/4 314/1/4
f 306/4/4 307/4/4 314/4/4
f 303/3/4 273/3/4 315/3/4
f 314/1/4 303/1/4 315/1/4
f 310/3/4 311/3/4 316/3/4
f 311/4/4 308/4/4 317/4/4
f 316/3/4 311/3/4 317/3/4
f 309/3/4 312/3/4 318/3/4
f 312/3/4 313/3/4 318/3/4
f 313/4/4 282/4/4 319/4/4
f 318/3/4 313/3/4 319/3/4
f 306/4/4 314/4/4 320/4/4
f 314/3/4 315/3/4 320/3/4
f 315/3/4 273/3/4 321/3/4
f 320/3/4 315/3/4 321/3/4
f 291/6/4 306/6/4 322/6/4
f 306/4/4 320/4/4 322/4/4
f 320/1/4 321/1/4 323/1/4
f 322/4/4 320/4/4 323/4/4
f 317/4/4 308/4/4 324/4/4
f 308/5/4 309/5/4 324/5/4
f 309/3/4 318/3/4 325/3/4
f 324/5/4 309/5/4 325/5/4
f 317/4/4 324/4/4 326/4/4
f 324/3/4 325/3/4 326/3/4
f 325/3/4 318/3/4 327/3/4
f 326/3/4 325/3/4 327/3/4
f 282/6/4 290/6/4 328/6/4
f 290/7/4 291/7/4 328/7/4
f 291/6/4 322/6/4 329/6/4
f 328/7/4 291/7/4 329/7/4
f 316/1/4 317/1/4 330/1/4
f 317/4/4 326/4/4 331/4/4
f 330/1/4 317/1/4 331/1/4
f 327/3/4 318/3/4 332/3/4
f 318/2/4 319/2/4 332/2/4
f 332/2/4 319/2/4 333/2/4
f 319/4/4 282/4/4 334/4/4
f 333/2/4 319/2/4 334/2/4
f 282/6/4 328/6/4 335/6/4
f 334/4/4 282/4/4 335/4/4
f 328/6/4 329/6/4 335/6/4
f 335/6/4 329/6/4 336/6/4
f 336/6/4 329/6/4 337/6/4
f 337/6/4 329/6/4 338/6/4
f 329/6/4 322/6/4 339/6/4
f 338/6/4 329/6/4 339/6/4
f 322/3/4 323/3/4 339/3/4
f 323/1/4 321/1/4 340/1/4
f 339/3/4 323/3/4 340/3/4
f 321/3/4 273/3/4 341/3/4
f 340/1/4 321/1/4 341/1/4
f 330/4/4 331/4/4 342/4/4
f 331/4/4 326/4/4 343/4/4
f 342/4/4 331/4/4 343/4/4
f 332/3/4 333/3/4 344/3/4
f 327/3/4 332/3/4 344/3/4
f 333/4/4 334/4/4 345/4/4
f 344/3/4 333/3/4 345/3/4
f 334/4/4 335/4/4 345/4/4
f 345/4/4 335/4/4 346/4/4
f 336/3/4 337/3/4 347/3/4
f 337/4/4 338/4/4 348/4/4
f 347/3/4 337/3/4 348/3/4
f 339/3/4 340/3/4 349/3/4
f 340/3/4 341/3/4 349/3/4
f 341/3/4 273/3/4 350/3/4
f 349/3/4 341/3/4 350/3/4
f 348/4/4 338/4/4 351/4/4
f 347/1/4 348/1/4 351/1/4
f 338/1/4 339/1/4 352/1/4
f 351/4/4 338/4/4 352/4/4
f 346/4/4 335/4/4 353/4/4
f 344/2/4 345/2/4 353/2/4
f 345/2/4 346/2/4 353/2/4
f 335/5/4 336/5/4 354/5/4
f 353/4/4 335/4/4 354/4/4
f 342/2/4 343/2/4 355/2/4
f 343/4/4 326/4/4 356/4/4
f 355/2/4 343/2/4 356/2/4
f 326/2/4 327/2/4 357/2/4
f 356/4/4 326/4/4 357/4/4
f 327/3/4 344/3/4 358/3/4
f 357/2/4 327/2/4 358/2/4
f 344/2/4 353/2/4 359/2/4
f 358/3/4 344/3/4 359/3/4
f 353/3/4 354/3/4 360/3/4
f 359/2/4 353/2/4 360/2/4
f 354/5/4 336/5/4 361/5/4
f 360/3/4 354/3/4 361/3/4
f 336/3/4 347/3/4 362/3/4
f 361/5/4 336/5/4 362/5/4
f 347/1/4 351/1/4 363/1/4
f 362/3/4 347/3/4 363/3/4
f 351/3/4 352/3/4 364/3/4
f 363/1/4 351/1/4 364/1/4
f 352/1/4 339/1/4 365/1/4
f 364/3/4 352/3/4 365/3/4
f 339/3/4 349/3/4 366/3/4
f 365/1/4 339/1/4 366/1/4
f 349/2/4 350/2/4 367/2/4
f 366/3/4 349/3/4 367/3/4
f 350/3/4 273/3/4 368/3/4
f 367/2/4 350/2/4 368/2/4
f 368/3/4 273/3/4 369/3/4
f 378/2/5 371/2/5 370/2/5
f 379/4/5 372/4/5 371/4/5
f 379/2/5 371/2/5 378/2/5
f 380/1/5 373/1/5 372/1/5
f 380/4/5 372/4/5 379/4/5
f 381/3/5 374/3/5 373/3/5
f 381/1/5 373/1/5 380/1/5
f 382/1/5 375/1/5 374/1/5
f 382/3/5 374/3/5 381/3/5
f 383/4/5 376/4/5 375/4/5
f 383/1/5 375/1/5 382/1/5
f 384/2/5 377/2/5 376/2/5
f 384/4/5 376/4/5 383/4/5
f 385/2/5 377/2/5 384/2/5
f 390/3/5 387/3/5 386/3/5
f 391/3/5 387/3/5 390/3/5
f 392/3/5 389/3/5 388/3/5
f 393/3/5 389/3/5 392/3/5
f 396/4/5 395/4/5 394/4/5
f 397/4/5 395/4/5 396/4/5
f 402/4/5 399/4/5 398/4/5
f 403/4/5 399/4/5 402/4/5
f 404/3/5 401/3/5 400/3/5
f 405/3/5 401/3/5 404/3/5
f 408/4/5 407/4/5 406/4/5
f 409/4/5 407/4/5 408/4/5
f 414/3/5 411/3/5 410/3/5
f 415/3/5 411/3/5 414/3/5
f 416/3/5 413/3/5 412/3/5
f 417/3/5 413/3/5 416/3/5
f 418/3/6 419/3/6 423/3/6
f 419/4/6 420/4/6 424/4/6
f 423/3/6 419/3/6 424/3/6
f 424/4/6 420/4/6 425/4/6
f 421/4/6 422/4/6 426/4/6
f 426/4/6 422/4/6 427/4/6
f 428/3/6 429/3/6 430/3/6
f 430/3/6 429/3/6 431/3/6
f 432/4/6 433/4/6 437/4/6
f 437/4/6 433/4/6 438/4/6
f 434/4/6 435/4/6 439/4/6
f 435/3/6 436/3/6 440/3/6
f 439/4/6 435/4/6 440/4/6
f 440/3/6 436/3/6 441/3/6
f 442/4/6 443/4/6 444/4/6
f 444/4/6 443/4/6 445/4/6
f 446/3/6 447/3/6 451/3/6
f 447/4/6 448/4/6 452/4/6
f 451/3/6 447/3/6 452/3/6
f 452/4/6 448/4/6 453/4/6
f 449/3/6 450/3/6 454/3/6
f 454/3/6 450/3/6 455/3/6
f 456/3/6 457/3/6 458/3/6
f 458/3/6 457/3/6 459/3/6
