# MagicaVoxel @ Ephtracy

# group
o 

# material
mtllib Brick_Wall.mtl
usemtl palette

# normals
vn -1 0 0
vn 1 0 0
vn 0 0 1
vn 0 0 -1
vn 0 -1 0
vn 0 1 0

# texcoords
vt 0.00195313 0.5
vt 0.00585938 0.5
vt 0.00976563 0.5
vt 0.0136719 0.5
vt 0.0214844 0.5

# verts
v -4.8 0 0.1
v -4.8 0 -0.1
v -4.8 0.1 0.1
v -4.8 0.1 -0.1
v -4.8 0.2 0.1
v -4.8 0.2 -0.1
v -4.8 0.6 0.1
v -4.8 0.6 -0.1
v -4.8 0.7 0.1
v -4.8 0.7 0
v -4.8 0.7 -0.1
v -4.8 1.1 0.1
v -4.8 1.1 0
v -4.8 1.1 -0.1
v -4.8 1.2 0.1
v -4.8 1.2 0
v -4.8 1.2 -0.1
v -4.8 1.6 0.1
v -4.8 1.6 0
v -4.8 1.6 -0.1
v -4.8 1.7 0.1
v -4.8 1.7 0
v -4.8 1.7 -0.1
v -4.8 2.1 0.1
v -4.8 2.1 0
v -4.8 2.1 -0.1
v -4.8 2.2 0.1
v -4.8 2.2 -0.1
v -4.8 2.6 0.1
v -4.8 2.6 -0.1
v -4.8 2.7 0.1
v -4.8 2.7 -0.1
v -4.8 3.1 0.1
v -4.8 3.1 -0.1
v -4.8 3.2 0.1
v -4.8 3.2 -0.1
v -4.3 1.2 0.1
v -4.3 1.2 0
v -4.3 1.6 0.1
v -4.3 1.6 0
v -4 0.7 0.1
v -4 0.7 0
v -4 1.1 0.1
v -4 1.1 0
v -4 1.7 0.1
v -4 1.7 0
v -4 2.1 0.1
v -4 2.1 0
v -3.4 0.2 0.1
v -3.4 0.2 0
v -3.4 0.6 0.1
v -3.4 0.6 0
v -3.1 2.7 0.1
v -3.1 2.7 0
v -3.1 3.1 0.1
v -3.1 3.1 0
v -2.2 1.7 0.1
v -2.2 1.7 0
v -2.2 2.1 0.1
v -2.2 2.1 0
v -4.2 0.2 0.1
v -4.2 0.2 0
v -4.2 0.6 0.1
v -4.2 0.6 0
v -3.9 2.7 0.1
v -3.9 2.7 0
v -3.9 3.1 0.1
v -3.9 3.1 0
v -3 1.7 0.1
v -3 1.7 0
v -3 2.1 0.1
v -3 2.1 0
v -2.4 0.2 0.1
v -2.4 0.2 0
v -2.4 0.6 0.1
v -2.4 0.6 0
v -2.4 1.2 0.1
v -2.4 1.2 0
v -2.4 1.6 0.1
v -2.4 1.6 0
v -2.1 2.7 0.1
v -2.1 2.7 0
v -2.1 3.1 0.1
v -2.1 3.1 0
v -1.6 0 0.1
v -1.6 0 -0.1
v -1.6 0.1 0.1
v -1.6 0.1 -0.1
v -1.6 0.2 0.1
v -1.6 0.2 0
v -1.6 0.2 -0.1
v -1.6 0.6 0.1
v -1.6 0.6 0
v -1.6 0.6 -0.1
v -1.6 0.7 0.1
v -1.6 0.7 -0.1
v -1.6 1.1 0.1
v -1.6 1.1 -0.1
v -1.6 1.2 0.1
v -1.6 1.2 0
v -1.6 1.2 -0.1
v -1.6 1.6 0.1
v -1.6 1.6 0
v -1.6 1.6 -0.1
v -1.6 1.7 0.1
v -1.6 1.7 -0.1
v -1.6 2.1 0.1
v -1.6 2.1 -0.1
v -1.6 2.2 0.1
v -1.6 2.2 -0.1
v -1.6 2.6 0.1
v -1.6 2.6 -0.1
v -1.6 2.7 0.1
v -1.6 2.7 0
v -1.6 2.7 -0.1
v -1.6 3.1 0.1
v -1.6 3.1 0
v -1.6 3.1 -0.1
v -1.6 3.2 0.1
v -1.6 3.2 -0.1
v -4.8 0 0.1
v -4.8 0.1 0.1
v -4.8 0.2 0.1
v -4.8 0.6 0.1
v -4.8 0.7 0.1
v -4.8 1.1 0.1
v -4.8 1.2 0.1
v -4.8 1.6 0.1
v -4.8 1.7 0.1
v -4.8 2.1 0.1
v -4.8 2.2 0.1
v -4.8 2.6 0.1
v -4.8 2.7 0.1
v -4.8 3.1 0.1
v -4.8 3.2 0.1
v -4.3 0.2 0.1
v -4.3 0.6 0.1
v -4.3 1.2 0.1
v -4.3 1.6 0.1
v -4.3 2.2 0.1
v -4.3 2.6 0.1
v -4.2 0.2 0.1
v -4.2 0.6 0.1
v -4.2 1.2 0.1
v -4.2 1.6 0.1
v -4.2 2.2 0.1
v -4.2 2.6 0.1
v -4.1 0.1 0.1
v -4.1 0.2 0.1
v -4 0 0.1
v -4 0.1 0.1
v -4 0.7 0.1
v -4 1.1 0.1
v -4 1.7 0.1
v -4 2.1 0.1
v -4 2.7 0.1
v -4 3.1 0.1
v -3.9 0 0.1
v -3.9 0.1 0.1
v -3.9 0.7 0.1
v -3.9 1.1 0.1
v -3.9 1.6 0.1
v -3.9 1.7 0.1
v -3.9 2.1 0.1
v -3.9 2.7 0.1
v -3.9 3.1 0.1
v -3.4 0.2 0.1
v -3.4 0.6 0.1
v -3.4 1.2 0.1
v -3.4 1.6 0.1
v -3.4 2.2 0.1
v -3.4 2.6 0.1
v -3.4 2.7 0.1
v -3.3 0.2 0.1
v -3.3 0.6 0.1
v -3.3 1.2 0.1
v -3.3 1.6 0.1
v -3.3 2.2 0.1
v -3.3 2.6 0.1
v -3.1 0 0.1
v -3.1 0.1 0.1
v -3.1 0.7 0.1
v -3.1 1.1 0.1
v -3.1 1.7 0.1
v -3.1 2.1 0.1
v -3.1 2.7 0.1
v -3.1 3.1 0.1
v -3 0 0.1
v -3 0.1 0.1
v -3 0.7 0.1
v -3 1.1 0.1
v -3 1.7 0.1
v -3 2.1 0.1
v -3 2.7 0.1
v -3 3.1 0.1
v -2.6 2.6 0.1
v -2.6 2.7 0.1
v -2.5 0.2 0.1
v -2.5 0.6 0.1
v -2.5 1.2 0.1
v -2.5 1.6 0.1
v -2.5 2.2 0.1
v -2.5 2.6 0.1
v -2.4 0.2 0.1
v -2.4 0.6 0.1
v -2.4 1.2 0.1
v -2.4 1.6 0.1
v -2.4 2.2 0.1
v -2.4 2.6 0.1
v -2.2 0 0.1
v -2.2 0.1 0.1
v -2.2 0.7 0.1
v -2.2 0.8 0.1
v -2.2 1.1 0.1
v -2.2 1.7 0.1
v -2.2 2.1 0.1
v -2.2 2.7 0.1
v -2.2 3.1 0.1
v -2.1 0 0.1
v -2.1 0.1 0.1
v -2.1 0.7 0.1
v -2.1 0.8 0.1
v -2.1 1.1 0.1
v -2.1 1.7 0.1
v -2.1 2.1 0.1
v -2.1 2.7 0.1
v -2.1 3.1 0.1
v -2 2.1 0.1
v -2 2.2 0.1
v -1.8 1.1 0.1
v -1.8 1.2 0.1
v -1.6 0 0.1
v -1.6 0.1 0.1
v -1.6 0.2 0.1
v -1.6 0.6 0.1
v -1.6 0.7 0.1
v -1.6 1.1 0.1
v -1.6 1.2 0.1
v -1.6 1.6 0.1
v -1.6 1.7 0.1
v -1.6 2.1 0.1
v -1.6 2.2 0.1
v -1.6 2.6 0.1
v -1.6 2.7 0.1
v -1.6 3.1 0.1
v -1.6 3.2 0.1
v -4.8 0.7 0
v -4.8 1.1 0
v -4.8 1.2 0
v -4.8 1.6 0
v -4.8 1.7 0
v -4.8 2.1 0
v -4.3 1.2 0
v -4.3 1.6 0
v -4.2 0.2 0
v -4.2 0.6 0
v -4.1 0.2 0
v -4 0.7 0
v -4 1.1 0
v -4 1.7 0
v -4 2.1 0
v -3.9 2.7 0
v -3.9 3.1 0
v -3.4 0.2 0
v -3.4 0.6 0
v -3.4 2.7 0
v -3.1 2.7 0
v -3.1 3.1 0
v -3 1.7 0
v -3 2.1 0
v -2.4 0.2 0
v -2.4 0.6 0
v -2.4 1.2 0
v -2.4 1.6 0
v -2.2 1.7 0
v -2.2 2.1 0
v -2.1 2.7 0
v -2.1 3.1 0
v -1.8 1.2 0
v -1.6 0.2 0
v -1.6 0.6 0
v -1.6 1.2 0
v -1.6 1.6 0
v -1.6 2.7 0
v -1.6 3.1 0
v -4.8 0 -0.1
v -4.8 0.1 -0.1
v -4.8 0.2 -0.1
v -4.8 0.6 -0.1
v -4.8 0.7 -0.1
v -4.8 1.1 -0.1
v -4.8 1.2 -0.1
v -4.8 1.6 -0.1
v -4.8 1.7 -0.1
v -4.8 2.1 -0.1
v -4.8 2.2 -0.1
v -4.8 2.6 -0.1
v -4.8 2.7 -0.1
v -4.8 3.1 -0.1
v -4.8 3.2 -0.1
v -4.3 0.2 -0.1
v -4.3 0.6 -0.1
v -4.3 1.2 -0.1
v -4.3 1.6 -0.1
v -4.3 2.2 -0.1
v -4.3 2.6 -0.1
v -4.2 0.2 -0.1
v -4.2 0.6 -0.1
v -4.2 1.2 -0.1
v -4.2 1.6 -0.1
v -4.2 2.2 -0.1
v -4.2 2.6 -0.1
v -4.1 0.1 -0.1
v -4.1 0.2 -0.1
v -4 0 -0.1
v -4 0.1 -0.1
v -4 0.7 -0.1
v -4 1.1 -0.1
v -4 1.7 -0.1
v -4 2.1 -0.1
v -4 2.7 -0.1
v -4 3.1 -0.1
v -3.9 0 -0.1
v -3.9 0.1 -0.1
v -3.9 0.7 -0.1
v -3.9 1.1 -0.1
v -3.9 1.6 -0.1
v -3.9 1.7 -0.1
v -3.9 2.1 -0.1
v -3.9 2.7 -0.1
v -3.9 3.1 -0.1
v -3.4 0.2 -0.1
v -3.4 0.6 -0.1
v -3.4 1.2 -0.1
v -3.4 1.6 -0.1
v -3.4 2.2 -0.1
v -3.4 2.6 -0.1
v -3.4 2.7 -0.1
v -3.3 0.2 -0.1
v -3.3 0.6 -0.1
v -3.3 1.2 -0.1
v -3.3 1.6 -0.1
v -3.3 2.2 -0.1
v -3.3 2.6 -0.1
v -3.1 0 -0.1
v -3.1 0.1 -0.1
v -3.1 0.7 -0.1
v -3.1 1.1 -0.1
v -3.1 1.7 -0.1
v -3.1 2.1 -0.1
v -3.1 2.7 -0.1
v -3.1 3.1 -0.1
v -3 0 -0.1
v -3 0.1 -0.1
v -3 0.7 -0.1
v -3 1.1 -0.1
v -3 1.7 -0.1
v -3 2.1 -0.1
v -3 2.7 -0.1
v -3 3.1 -0.1
v -2.6 2.6 -0.1
v -2.6 2.7 -0.1
v -2.5 0.2 -0.1
v -2.5 0.6 -0.1
v -2.5 1.2 -0.1
v -2.5 1.6 -0.1
v -2.5 2.2 -0.1
v -2.5 2.6 -0.1
v -2.4 0.2 -0.1
v -2.4 0.6 -0.1
v -2.4 1.2 -0.1
v -2.4 1.6 -0.1
v -2.4 2.2 -0.1
v -2.4 2.6 -0.1
v -2.2 0 -0.1
v -2.2 0.1 -0.1
v -2.2 0.7 -0.1
v -2.2 0.8 -0.1
v -2.2 1.1 -0.1
v -2.2 1.7 -0.1
v -2.2 2.1 -0.1
v -2.2 2.7 -0.1
v -2.2 3.1 -0.1
v -2.1 0 -0.1
v -2.1 0.1 -0.1
v -2.1 0.7 -0.1
v -2.1 0.8 -0.1
v -2.1 1.1 -0.1
v -2.1 1.7 -0.1
v -2.1 2.1 -0.1
v -2.1 2.7 -0.1
v -2.1 3.1 -0.1
v -2 2.1 -0.1
v -2 2.2 -0.1
v -1.8 1.1 -0.1
v -1.8 1.2 -0.1
v -1.6 0 -0.1
v -1.6 0.1 -0.1
v -1.6 0.2 -0.1
v -1.6 0.6 -0.1
v -1.6 0.7 -0.1
v -1.6 1.1 -0.1
v -1.6 1.2 -0.1
v -1.6 1.6 -0.1
v -1.6 1.7 -0.1
v -1.6 2.1 -0.1
v -1.6 2.2 -0.1
v -1.6 2.6 -0.1
v -1.6 2.7 -0.1
v -1.6 3.1 -0.1
v -1.6 3.2 -0.1
v -4.8 0 0.1
v -4 0 0.1
v -3.9 0 0.1
v -3.1 0 0.1
v -3 0 0.1
v -2.2 0 0.1
v -2.1 0 0.1
v -1.6 0 0.1
v -4.8 0 -0.1
v -4 0 -0.1
v -3.9 0 -0.1
v -3.1 0 -0.1
v -3 0 -0.1
v -2.2 0 -0.1
v -2.1 0 -0.1
v -1.6 0 -0.1
v -4.2 0.6 0.1
v -3.4 0.6 0.1
v -2.4 0.6 0.1
v -1.6 0.6 0.1
v -4.2 0.6 0
v -3.4 0.6 0
v -2.4 0.6 0
v -1.6 0.6 0
v -4.8 1.1 0.1
v -4 1.1 0.1
v -4.8 1.1 0
v -4 1.1 0
v -4.8 1.6 0.1
v -4.3 1.6 0.1
v -2.4 1.6 0.1
v -1.6 1.6 0.1
v -4.8 1.6 0
v -4.3 1.6 0
v -2.4 1.6 0
v -1.6 1.6 0
v -4.8 2.1 0.1
v -4 2.1 0.1
v -3 2.1 0.1
v -2.2 2.1 0.1
v -4.8 2.1 0
v -4 2.1 0
v -3 2.1 0
v -2.2 2.1 0
v -3.9 3.1 0.1
v -3.1 3.1 0.1
v -2.1 3.1 0.1
v -1.6 3.1 0.1
v -3.9 3.1 0
v -3.1 3.1 0
v -2.1 3.1 0
v -1.6 3.1 0
v -4.2 0.2 0.1
v -4.1 0.2 0.1
v -3.4 0.2 0.1
v -2.4 0.2 0.1
v -1.6 0.2 0.1
v -4.2 0.2 0
v -4.1 0.2 0
v -3.4 0.2 0
v -2.4 0.2 0
v -1.6 0.2 0
v -4.8 0.7 0.1
v -4 0.7 0.1
v -4.8 0.7 0
v -4 0.7 0
v -4.8 1.2 0.1
v -4.3 1.2 0.1
v -2.4 1.2 0.1
v -1.8 1.2 0.1
v -1.6 1.2 0.1
v -4.8 1.2 0
v -4.3 1.2 0
v -2.4 1.2 0
v -1.8 1.2 0
v -1.6 1.2 0
v -4.8 1.7 0.1
v -4 1.7 0.1
v -3 1.7 0.1
v -2.2 1.7 0.1
v -4.8 1.7 0
v -4 1.7 0
v -3 1.7 0
v -2.2 1.7 0
v -3.9 2.7 0.1
v -3.4 2.7 0.1
v -3.1 2.7 0.1
v -2.1 2.7 0.1
v -1.6 2.7 0.1
v -3.9 2.7 0
v -3.4 2.7 0
v -3.1 2.7 0
v -2.1 2.7 0
v -1.6 2.7 0
v -4.8 3.2 0.1
v -1.6 3.2 0.1
v -4.8 3.2 -0.1
v -1.6 3.2 -0.1

# faces
f 3/2/1 2/2/1 1/2/1
f 4/2/1 2/2/1 3/2/1
f 5/3/1 4/3/1 3/3/1
f 6/3/1 4/3/1 5/3/1
f 7/2/1 6/2/1 5/2/1
f 8/2/1 6/2/1 7/2/1
f 9/3/1 8/3/1 7/3/1
f 10/3/1 8/3/1 9/3/1
f 11/3/1 8/3/1 10/3/1
f 13/2/1 11/2/1 10/2/1
f 14/2/1 11/2/1 13/2/1
f 15/4/1 13/4/1 12/4/1
f 15/4/1 14/4/1 13/4/1
f 16/4/1 14/4/1 15/4/1
f 17/4/1 14/4/1 16/4/1
f 19/5/1 17/5/1 16/5/1
f 20/5/1 17/5/1 19/5/1
f 21/4/1 19/4/1 18/4/1
f 21/4/1 20/4/1 19/4/1
f 22/4/1 20/4/1 21/4/1
f 23/4/1 20/4/1 22/4/1
f 25/1/1 23/1/1 22/1/1
f 26/1/1 23/1/1 25/1/1
f 27/4/1 25/4/1 24/4/1
f 27/4/1 26/4/1 25/4/1
f 28/4/1 26/4/1 27/4/1
f 29/1/1 28/1/1 27/1/1
f 30/1/1 28/1/1 29/1/1
f 31/3/1 30/3/1 29/3/1
f 32/3/1 30/3/1 31/3/1
f 33/2/1 32/2/1 31/2/1
f 34/2/1 32/2/1 33/2/1
f 35/3/1 34/3/1 33/3/1
f 36/3/1 34/3/1 35/3/1
f 39/3/1 38/3/1 37/3/1
f 40/3/1 38/3/1 39/3/1
f 43/3/1 42/3/1 41/3/1
f 44/3/1 42/3/1 43/3/1
f 47/4/1 46/4/1 45/4/1
f 48/4/1 46/4/1 47/4/1
f 51/3/1 50/3/1 49/3/1
f 52/3/1 50/3/1 51/3/1
f 55/3/1 54/3/1 53/3/1
f 56/3/1 54/3/1 55/3/1
f 59/3/1 58/3/1 57/3/1
f 60/3/1 58/3/1 59/3/1
f 61/3/2 62/3/2 63/3/2
f 63/3/2 62/3/2 64/3/2
f 65/3/2 66/3/2 67/3/2
f 67/3/2 66/3/2 68/3/2
f 69/3/2 70/3/2 71/3/2
f 71/3/2 70/3/2 72/3/2
f 73/3/2 74/3/2 75/3/2
f 75/3/2 74/3/2 76/3/2
f 77/3/2 78/3/2 79/3/2
f 79/3/2 78/3/2 80/3/2
f 81/3/2 82/3/2 83/3/2
f 83/3/2 82/3/2 84/3/2
f 85/2/2 86/2/2 87/2/2
f 87/2/2 86/2/2 88/2/2
f 87/4/2 88/4/2 89/4/2
f 89/4/2 88/4/2 90/4/2
f 90/4/2 88/4/2 91/4/2
f 90/2/2 91/2/2 93/2/2
f 93/2/2 91/2/2 94/2/2
f 92/3/2 93/3/2 95/3/2
f 93/3/2 94/3/2 95/3/2
f 95/3/2 94/3/2 96/3/2
f 95/2/2 96/2/2 97/2/2
f 97/2/2 96/2/2 98/2/2
f 97/3/2 98/3/2 99/3/2
f 99/3/2 98/3/2 100/3/2
f 100/3/2 98/3/2 101/3/2
f 100/5/2 101/5/2 103/5/2
f 103/5/2 101/5/2 104/5/2
f 102/3/2 103/3/2 105/3/2
f 103/3/2 104/3/2 105/3/2
f 105/3/2 104/3/2 106/3/2
f 105/1/2 106/1/2 107/1/2
f 107/1/2 106/1/2 108/1/2
f 107/3/2 108/3/2 109/3/2
f 109/3/2 108/3/2 110/3/2
f 109/1/2 110/1/2 111/1/2
f 111/1/2 110/1/2 112/1/2
f 111/3/2 112/3/2 113/3/2
f 113/3/2 112/3/2 114/3/2
f 114/3/2 112/3/2 115/3/2
f 114/2/2 115/2/2 117/2/2
f 117/2/2 115/2/2 118/2/2
f 116/3/2 117/3/2 119/3/2
f 117/3/2 118/3/2 119/3/2
f 119/3/2 118/3/2 120/3/2
f 136/3/3 123/3/3 122/3/3
f 136/2/3 124/2/3 123/2/3
f 137/3/3 125/3/3 124/3/3
f 137/2/3 124/2/3 136/2/3
f 138/4/3 127/4/3 126/4/3
f 139/4/3 129/4/3 128/4/3
f 140/4/3 131/4/3 130/4/3
f 140/1/3 132/1/3 131/1/3
f 141/3/3 133/3/3 132/3/3
f 141/1/3 132/1/3 140/1/3
f 142/3/3 136/3/3 122/3/3
f 142/3/3 137/3/3 136/3/3
f 143/3/3 125/3/3 137/3/3
f 143/3/3 137/3/3 142/3/3
f 144/4/3 138/4/3 126/4/3
f 144/3/3 139/3/3 138/3/3
f 145/4/3 129/4/3 139/4/3
f 145/3/3 139/3/3 144/3/3
f 146/4/3 140/4/3 130/4/3
f 146/3/3 141/3/3 140/3/3
f 147/3/3 133/3/3 141/3/3
f 147/3/3 141/3/3 146/3/3
f 148/2/3 122/2/3 121/2/3
f 148/3/3 142/3/3 122/3/3
f 149/3/3 142/3/3 148/3/3
f 150/2/3 148/2/3 121/2/3
f 151/4/3 149/4/3 148/4/3
f 151/2/3 148/2/3 150/2/3
f 152/3/3 125/3/3 143/3/3
f 153/4/3 144/4/3 126/4/3
f 154/4/3 129/4/3 145/4/3
f 155/4/3 146/4/3 130/4/3
f 156/3/3 133/3/3 147/3/3
f 156/2/3 134/2/3 133/2/3
f 157/3/3 135/3/3 134/3/3
f 157/2/3 134/2/3 156/2/3
f 158/4/3 151/4/3 150/4/3
f 159/4/3 149/4/3 151/4/3
f 159/4/3 151/4/3 158/4/3
f 160/3/3 152/3/3 143/3/3
f 160/3/3 153/3/3 152/3/3
f 161/4/3 144/4/3 153/4/3
f 161/3/3 153/3/3 160/3/3
f 162/4/3 155/4/3 154/4/3
f 162/4/3 154/4/3 145/4/3
f 162/2/3 145/2/3 144/2/3
f 163/4/3 155/4/3 162/4/3
f 164/4/3 146/4/3 155/4/3
f 164/4/3 155/4/3 163/4/3
f 165/3/3 156/3/3 147/3/3
f 165/3/3 157/3/3 156/3/3
f 166/3/3 135/3/3 157/3/3
f 166/3/3 157/3/3 165/3/3
f 167/4/3 149/4/3 159/4/3
f 168/3/3 160/3/3 143/3/3
f 169/4/3 144/4/3 161/4/3
f 169/2/3 162/2/3 144/2/3
f 170/3/3 163/3/3 162/3/3
f 170/2/3 162/2/3 169/2/3
f 171/4/3 146/4/3 164/4/3
f 171/5/3 147/5/3 146/5/3
f 172/3/3 165/3/3 147/3/3
f 172/5/3 147/5/3 171/5/3
f 173/3/3 165/3/3 172/3/3
f 174/3/3 168/3/3 167/3/3
f 174/4/3 167/4/3 159/4/3
f 175/3/3 160/3/3 168/3/3
f 175/3/3 168/3/3 174/3/3
f 176/4/3 169/4/3 161/4/3
f 176/3/3 170/3/3 169/3/3
f 177/3/3 163/3/3 170/3/3
f 177/3/3 170/3/3 176/3/3
f 178/4/3 171/4/3 164/4/3
f 178/4/3 173/4/3 172/4/3
f 178/4/3 172/4/3 171/4/3
f 179/4/3 173/4/3 178/4/3
f 180/1/3 159/1/3 158/1/3
f 181/4/3 174/4/3 159/4/3
f 181/1/3 159/1/3 180/1/3
f 182/3/3 160/3/3 175/3/3
f 182/1/3 161/1/3 160/1/3
f 183/4/3 176/4/3 161/4/3
f 183/1/3 161/1/3 182/1/3
f 184/2/3 164/2/3 163/2/3
f 184/3/3 163/3/3 177/3/3
f 185/4/3 178/4/3 164/4/3
f 185/2/3 164/2/3 184/2/3
f 186/4/3 173/4/3 179/4/3
f 187/3/3 135/3/3 166/3/3
f 188/3/3 181/3/3 180/3/3
f 189/4/3 174/4/3 181/4/3
f 189/3/3 181/3/3 188/3/3
f 190/3/3 182/3/3 175/3/3
f 190/3/3 183/3/3 182/3/3
f 191/4/3 176/4/3 183/4/3
f 191/3/3 183/3/3 190/3/3
f 192/3/3 185/3/3 184/3/3
f 192/3/3 184/3/3 177/3/3
f 193/4/3 178/4/3 185/4/3
f 193/3/3 185/3/3 192/3/3
f 194/4/3 186/4/3 179/4/3
f 194/3/3 187/3/3 186/3/3
f 195/3/3 135/3/3 187/3/3
f 195/3/3 187/3/3 194/3/3
f 196/2/3 179/2/3 178/2/3
f 196/4/3 194/4/3 179/4/3
f 197/1/3 195/1/3 194/1/3
f 197/4/3 194/4/3 196/4/3
f 198/4/3 174/4/3 189/4/3
f 198/5/3 175/5/3 174/5/3
f 199/3/3 190/3/3 175/3/3
f 199/5/3 175/5/3 198/5/3
f 200/4/3 176/4/3 191/4/3
f 200/1/3 177/1/3 176/1/3
f 201/3/3 192/3/3 177/3/3
f 201/1/3 177/1/3 200/1/3
f 202/4/3 178/4/3 193/4/3
f 202/2/3 196/2/3 178/2/3
f 203/3/3 197/3/3 196/3/3
f 203/2/3 196/2/3 202/2/3
f 204/4/3 198/4/3 189/4/3
f 204/3/3 199/3/3 198/3/3
f 205/3/3 190/3/3 199/3/3
f 205/3/3 199/3/3 204/3/3
f 206/4/3 200/4/3 191/4/3
f 206/3/3 201/3/3 200/3/3
f 207/3/3 192/3/3 201/3/3
f 207/3/3 201/3/3 206/3/3
f 208/4/3 202/4/3 193/4/3
f 208/3/3 203/3/3 202/3/3
f 209/3/3 197/3/3 203/3/3
f 209/3/3 203/3/3 208/3/3
f 210/1/3 189/1/3 188/1/3
f 211/4/3 204/4/3 189/4/3
f 211/1/3 189/1/3 210/1/3
f 212/3/3 190/3/3 205/3/3
f 212/2/3 191/2/3 190/2/3
f 213/2/3 191/2/3 212/2/3
f 214/4/3 206/4/3 191/4/3
f 214/2/3 191/2/3 213/2/3
f 215/3/3 192/3/3 207/3/3
f 216/4/3 208/4/3 193/4/3
f 217/1/3 195/1/3 197/1/3
f 217/3/3 197/3/3 209/3/3
f 218/3/3 135/3/3 195/3/3
f 218/1/3 195/1/3 217/1/3
f 219/4/3 211/4/3 210/4/3
f 220/4/3 204/4/3 211/4/3
f 220/4/3 211/4/3 219/4/3
f 221/3/3 213/3/3 212/3/3
f 221/3/3 212/3/3 205/3/3
f 222/4/3 214/4/3 213/4/3
f 222/3/3 213/3/3 221/3/3
f 223/4/3 206/4/3 214/4/3
f 223/4/3 214/4/3 222/4/3
f 224/3/3 216/3/3 215/3/3
f 224/3/3 215/3/3 207/3/3
f 225/4/3 208/4/3 216/4/3
f 225/3/3 216/3/3 224/3/3
f 226/3/3 217/3/3 209/3/3
f 226/3/3 218/3/3 217/3/3
f 227/3/3 135/3/3 218/3/3
f 227/3/3 218/3/3 226/3/3
f 228/4/3 208/4/3 225/4/3
f 228/1/3 225/1/3 224/1/3
f 229/1/3 209/1/3 208/1/3
f 229/4/3 208/4/3 228/4/3
f 230/4/3 206/4/3 223/4/3
f 230/2/3 222/2/3 221/2/3
f 230/2/3 223/2/3 222/2/3
f 231/4/3 206/4/3 230/4/3
f 232/2/3 220/2/3 219/2/3
f 233/4/3 204/4/3 220/4/3
f 233/2/3 220/2/3 232/2/3
f 234/4/3 204/4/3 233/4/3
f 235/3/3 221/3/3 205/3/3
f 236/2/3 230/2/3 221/2/3
f 236/3/3 221/3/3 235/3/3
f 237/3/3 231/3/3 230/3/3
f 237/2/3 230/2/3 236/2/3
f 238/3/3 231/3/3 237/3/3
f 239/3/3 224/3/3 207/3/3
f 240/1/3 228/1/3 224/1/3
f 240/3/3 224/3/3 239/3/3
f 241/3/3 229/3/3 228/3/3
f 241/1/3 228/1/3 240/1/3
f 242/1/3 209/1/3 229/1/3
f 242/3/3 229/3/3 241/3/3
f 243/3/3 226/3/3 209/3/3
f 243/1/3 209/1/3 242/1/3
f 244/3/3 226/3/3 243/3/3
f 245/3/3 135/3/3 227/3/3
f 246/3/3 135/3/3 245/3/3
f 253/5/3 250/5/3 249/5/3
f 254/5/3 250/5/3 253/5/3
f 257/1/3 256/1/3 255/1/3
f 258/2/3 248/2/3 247/2/3
f 259/2/3 248/2/3 258/2/3
f 260/1/3 252/1/3 251/1/3
f 261/1/3 252/1/3 260/1/3
f 264/1/3 256/1/3 257/1/3
f 265/1/3 256/1/3 264/1/3
f 266/1/3 263/1/3 262/1/3
f 267/1/3 263/1/3 266/1/3
f 268/1/3 263/1/3 267/1/3
f 275/5/3 270/5/3 269/5/3
f 276/5/3 270/5/3 275/5/3
f 279/5/3 274/5/3 273/5/3
f 280/2/3 272/2/3 271/2/3
f 281/2/3 272/2/3 280/2/3
f 282/5/3 274/5/3 279/5/3
f 283/5/3 274/5/3 282/5/3
f 284/2/3 278/2/3 277/2/3
f 285/2/3 278/2/3 284/2/3
f 287/3/4 288/3/4 301/3/4
f 288/2/4 289/2/4 301/2/4
f 289/3/4 290/3/4 302/3/4
f 301/2/4 289/2/4 302/2/4
f 291/4/4 292/4/4 303/4/4
f 292/5/4 293/5/4 303/5/4
f 293/4/4 294/4/4 304/4/4
f 303/5/4 293/5/4 304/5/4
f 295/4/4 296/4/4 305/4/4
f 296/1/4 297/1/4 305/1/4
f 297/3/4 298/3/4 306/3/4
f 305/1/4 297/1/4 306/1/4
f 287/3/4 301/3/4 307/3/4
f 301/3/4 302/3/4 307/3/4
f 302/3/4 290/3/4 308/3/4
f 307/3/4 302/3/4 308/3/4
f 291/4/4 303/4/4 309/4/4
f 303/3/4 304/3/4 309/3/4
f 304/4/4 294/4/4 310/4/4
f 309/3/4 304/3/4 310/3/4
f 305/3/4 306/3/4 311/3/4
f 295/4/4 305/4/4 311/4/4
f 306/3/4 298/3/4 312/3/4
f 311/3/4 306/3/4 312/3/4
f 286/2/4 287/2/4 313/2/4
f 287/3/4 307/3/4 313/3/4
f 307/1/4 308/1/4 314/1/4
f 313/3/4 307/3/4 314/3/4
f 286/2/4 313/2/4 315/2/4
f 313/4/4 314/4/4 316/4/4
f 315/2/4 313/2/4 316/2/4
f 290/2/4 291/2/4 317/2/4
f 308/3/4 290/3/4 317/3/4
f 291/4/4 309/4/4 318/4/4
f 317/2/4 291/2/4 318/2/4
f 310/4/4 294/4/4 319/4/4
f 294/1/4 295/1/4 319/1/4
f 295/4/4 311/4/4 320/4/4
f 319/1/4 295/1/4 320/1/4
f 312/3/4 298/3/4 321/3/4
f 298/2/4 299/2/4 321/2/4
f 299/3/4 300/3/4 322/3/4
f 321/2/4 299/2/4 322/2/4
f 315/4/4 316/4/4 323/4/4
f 316/4/4 314/4/4 324/4/4
f 323/4/4 316/4/4 324/4/4
f 317/3/4 318/3/4 325/3/4
f 308/3/4 317/3/4 325/3/4
f 318/4/4 309/4/4 326/4/4
f 325/3/4 318/3/4 326/3/4
f 319/4/4 320/4/4 327/4/4
f 310/4/4 319/4/4 327/4/4
f 309/2/4 310/2/4 327/2/4
f 327/4/4 320/4/4 328/4/4
f 320/4/4 311/4/4 329/4/4
f 328/4/4 320/4/4 329/4/4
f 312/3/4 321/3/4 330/3/4
f 321/3/4 322/3/4 330/3/4
f 322/3/4 300/3/4 331/3/4
f 330/3/4 322/3/4 331/3/4
f 324/4/4 314/4/4 332/4/4
f 314/1/4 308/1/4 332/1/4
f 308/3/4 325/3/4 333/3/4
f 332/1/4 308/1/4 333/1/4
f 326/4/4 309/4/4 334/4/4
f 309/2/4 327/2/4 334/2/4
f 327/3/4 328/3/4 335/3/4
f 334/2/4 327/2/4 335/2/4
f 329/4/4 311/4/4 336/4/4
f 311/5/4 312/5/4 336/5/4
f 312/3/4 330/3/4 337/3/4
f 336/5/4 312/5/4 337/5/4
f 330/1/4 331/1/4 338/1/4
f 337/3/4 330/3/4 338/3/4
f 324/4/4 332/4/4 339/4/4
f 332/3/4 333/3/4 339/3/4
f 333/3/4 325/3/4 340/3/4
f 339/3/4 333/3/4 340/3/4
f 326/4/4 334/4/4 341/4/4
f 334/3/4 335/3/4 341/3/4
f 335/3/4 328/3/4 342/3/4
f 341/3/4 335/3/4 342/3/4
f 329/4/4 336/4/4 343/4/4
f 336/4/4 337/4/4 343/4/4
f 337/4/4 338/4/4 343/4/4
f 343/4/4 338/4/4 344/4/4
f 323/1/4 324/1/4 345/1/4
f 324/4/4 339/4/4 346/4/4
f 345/1/4 324/1/4 346/1/4
f 340/3/4 325/3/4 347/3/4
f 325/1/4 326/1/4 347/1/4
f 326/4/4 341/4/4 348/4/4
f 347/1/4 326/1/4 348/1/4
f 342/3/4 328/3/4 349/3/4
f 328/2/4 329/2/4 349/2/4
f 329/4/4 343/4/4 350/4/4
f 349/2/4 329/2/4 350/2/4
f 338/1/4 331/1/4 351/1/4
f 344/4/4 338/4/4 351/4/4
f 331/3/4 300/3/4 352/3/4
f 351/1/4 331/1/4 352/1/4
f 345/3/4 346/3/4 353/3/4
f 346/4/4 339/4/4 354/4/4
f 353/3/4 346/3/4 354/3/4
f 340/3/4 347/3/4 355/3/4
f 347/3/4 348/3/4 355/3/4
f 348/4/4 341/4/4 356/4/4
f 355/3/4 348/3/4 356/3/4
f 349/3/4 350/3/4 357/3/4
f 342/3/4 349/3/4 357/3/4
f 350/4/4 343/4/4 358/4/4
f 357/3/4 350/3/4 358/3/4
f 344/4/4 351/4/4 359/4/4
f 351/3/4 352/3/4 359/3/4
f 352/3/4 300/3/4 360/3/4
f 359/3/4 352/3/4 360/3/4
f 344/4/4 359/4/4 361/4/4
f 343/2/4 344/2/4 361/2/4
f 359/1/4 360/1/4 362/1/4
f 361/4/4 359/4/4 362/4/4
f 354/4/4 339/4/4 363/4/4
f 339/5/4 340/5/4 363/5/4
f 340/3/4 355/3/4 364/3/4
f 363/5/4 340/5/4 364/5/4
f 356/4/4 341/4/4 365/4/4
f 341/1/4 342/1/4 365/1/4
f 342/3/4 357/3/4 366/3/4
f 365/1/4 342/1/4 366/1/4
f 358/4/4 343/4/4 367/4/4
f 343/2/4 361/2/4 367/2/4
f 361/3/4 362/3/4 368/3/4
f 367/2/4 361/2/4 368/2/4
f 354/4/4 363/4/4 369/4/4
f 363/3/4 364/3/4 369/3/4
f 364/3/4 355/3/4 370/3/4
f 369/3/4 364/3/4 370/3/4
f 356/4/4 365/4/4 371/4/4
f 365/3/4 366/3/4 371/3/4
f 366/3/4 357/3/4 372/3/4
f 371/3/4 366/3/4 372/3/4
f 358/4/4 367/4/4 373/4/4
f 367/3/4 368/3/4 373/3/4
f 368/3/4 362/3/4 374/3/4
f 373/3/4 368/3/4 374/3/4
f 353/1/4 354/1/4 375/1/4
f 354/4/4 369/4/4 376/4/4
f 375/1/4 354/1/4 376/1/4
f 370/3/4 355/3/4 377/3/4
f 355/2/4 356/2/4 377/2/4
f 377/2/4 356/2/4 378/2/4
f 356/4/4 371/4/4 379/4/4
f 378/2/4 356/2/4 379/2/4
f 372/3/4 357/3/4 380/3/4
f 357/5/4 358/5/4 380/5/4
f 358/4/4 373/4/4 381/4/4
f 380/5/4 358/5/4 381/5/4
f 362/1/4 360/1/4 382/1/4
f 374/3/4 362/3/4 382/3/4
f 360/3/4 300/3/4 383/3/4
f 382/1/4 360/1/4 383/1/4
f 375/4/4 376/4/4 384/4/4
f 376/4/4 369/4/4 385/4/4
f 384/4/4 376/4/4 385/4/4
f 377/3/4 378/3/4 386/3/4
f 370/3/4 377/3/4 386/3/4
f 378/4/4 379/4/4 387/4/4
f 386/3/4 378/3/4 387/3/4
f 379/4/4 371/4/4 388/4/4
f 387/4/4 379/4/4 388/4/4
f 372/3/4 380/3/4 389/3/4
f 380/3/4 381/3/4 389/3/4
f 381/4/4 373/4/4 390/4/4
f 389/3/4 381/3/4 390/3/4
f 374/3/4 382/3/4 391/3/4
f 382/3/4 383/3/4 391/3/4
f 383/3/4 300/3/4 392/3/4
f 391/3/4 383/3/4 392/3/4
f 390/4/4 373/4/4 393/4/4
f 389/1/4 390/1/4 393/1/4
f 373/1/4 374/1/4 394/1/4
f 393/4/4 373/4/4 394/4/4
f 386/2/4 387/2/4 395/2/4
f 388/4/4 371/4/4 395/4/4
f 387/2/4 388/2/4 395/2/4
f 371/5/4 372/5/4 396/5/4
f 395/4/4 371/4/4 396/4/4
f 384/2/4 385/2/4 397/2/4
f 385/4/4 369/4/4 398/4/4
f 397/2/4 385/2/4 398/2/4
f 369/2/4 370/2/4 399/2/4
f 398/4/4 369/4/4 399/4/4
f 370/3/4 386/3/4 400/3/4
f 399/2/4 370/2/4 400/2/4
f 386/2/4 395/2/4 401/2/4
f 400/3/4 386/3/4 401/3/4
f 395/3/4 396/3/4 402/3/4
f 401/2/4 395/2/4 402/2/4
f 396/5/4 372/5/4 403/5/4
f 402/3/4 396/3/4 403/3/4
f 372/3/4 389/3/4 404/3/4
f 403/5/4 372/5/4 404/5/4
f 389/1/4 393/1/4 405/1/4
f 404/3/4 389/3/4 405/3/4
f 393/3/4 394/3/4 406/3/4
f 405/1/4 393/1/4 406/1/4
f 394/1/4 374/1/4 407/1/4
f 406/3/4 394/3/4 407/3/4
f 374/3/4 391/3/4 408/3/4
f 407/1/4 374/1/4 408/1/4
f 391/2/4 392/2/4 409/2/4
f 408/3/4 391/3/4 409/3/4
f 392/3/4 300/3/4 410/3/4
f 409/2/4 392/2/4 410/2/4
f 410/3/4 300/3/4 411/3/4
f 420/2/5 413/2/5 412/2/5
f 421/4/5 414/4/5 413/4/5
f 421/2/5 413/2/5 420/2/5
f 422/1/5 415/1/5 414/1/5
f 422/4/5 414/4/5 421/4/5
f 423/3/5 416/3/5 415/3/5
f 423/1/5 415/1/5 422/1/5
f 424/1/5 417/1/5 416/1/5
f 424/3/5 416/3/5 423/3/5
f 425/4/5 418/4/5 417/4/5
f 425/1/5 417/1/5 424/1/5
f 426/2/5 419/2/5 418/2/5
f 426/4/5 418/4/5 425/4/5
f 427/2/5 419/2/5 426/2/5
f 432/3/5 429/3/5 428/3/5
f 433/3/5 429/3/5 432/3/5
f 434/3/5 431/3/5 430/3/5
f 435/3/5 431/3/5 434/3/5
f 438/4/5 437/4/5 436/4/5
f 439/4/5 437/4/5 438/4/5
f 444/4/5 441/4/5 440/4/5
f 445/4/5 441/4/5 444/4/5
f 446/3/5 443/3/5 442/3/5
f 447/3/5 443/3/5 446/3/5
f 452/4/5 449/4/5 448/4/5
f 453/4/5 449/4/5 452/4/5
f 454/4/5 451/4/5 450/4/5
f 455/4/5 451/4/5 454/4/5
f 460/3/5 457/3/5 456/3/5
f 461/3/5 457/3/5 460/3/5
f 462/3/5 459/3/5 458/3/5
f 463/3/5 459/3/5 462/3/5
f 464/3/6 465/3/6 469/3/6
f 465/4/6 466/4/6 470/4/6
f 469/3/6 465/3/6 470/3/6
f 470/4/6 466/4/6 471/4/6
f 467/4/6 468/4/6 472/4/6
f 472/4/6 468/4/6 473/4/6
f 474/3/6 475/3/6 476/3/6
f 476/3/6 475/3/6 477/3/6
f 478/4/6 479/4/6 483/4/6
f 483/4/6 479/4/6 484/4/6
f 480/4/6 481/4/6 485/4/6
f 481/3/6 482/3/6 486/3/6
f 485/4/6 481/4/6 486/4/6
f 486/3/6 482/3/6 487/3/6
f 488/4/6 489/4/6 492/4/6
f 492/4/6 489/4/6 493/4/6
f 490/3/6 491/3/6 494/3/6
f 494/3/6 491/3/6 495/3/6
f 496/3/6 497/3/6 501/3/6
f 497/4/6 498/4/6 502/4/6
f 501/3/6 497/3/6 502/3/6
f 502/4/6 498/4/6 503/4/6
f 499/3/6 500/3/6 504/3/6
f 504/3/6 500/3/6 505/3/6
f 506/3/6 507/3/6 508/3/6
f 508/3/6 507/3/6 509/3/6
