# MagicaVoxel @ Ephtracy

# group
o 

# material
mtllib Garden Brick Wall.mtl
usemtl palette

# normals
vn -1 0 0
vn 1 0 0
vn 0 0 1
vn 0 0 -1
vn 0 -1 0
vn 0 1 0

# texcoords
vt 0.00195313 0.5
vt 0.00585938 0.5
vt 0.00976563 0.5
vt 0.0136719 0.5
vt 0.0175781 0.5
vt 0.0214844 0.5

# verts
v -1.6 0 0.8
v -1.6 0 0.4
v -1.6 0.1 0.8
v -1.6 0.1 0.4
v -1.6 0.4 0.8
v -1.6 0.4 0.4
v -1.6 0.5 0.8
v -1.6 0.5 0.4
v -1.6 0.8 0.8
v -1.6 0.8 0.4
v -1.6 0.9 0.8
v -1.6 0.9 0.4
v -1.6 1.2 0.8
v -1.6 1.2 0.4
v -1.6 1.3 0.8
v -1.6 1.3 0.4
v -1.6 1.6 0.8
v -1.6 1.6 0.4
v 1.6 0 0.8
v 1.6 0 0.4
v 1.6 0.1 0.8
v 1.6 0.1 0.4
v 1.6 0.4 0.8
v 1.6 0.4 0.4
v 1.6 0.5 0.8
v 1.6 0.5 0.4
v 1.6 0.7 0.8
v 1.6 0.7 0.4
v 1.6 0.8 0.8
v 1.6 0.8 0.4
v 1.6 0.9 0.8
v 1.6 0.9 0.4
v 1.6 1.2 0.8
v 1.6 1.2 0.4
v 1.6 1.6 0.8
v 1.6 1.6 0.4
v -1.6 0 0.8
v -1.6 0.1 0.8
v -1.6 0.4 0.8
v -1.6 0.5 0.8
v -1.6 0.8 0.8
v -1.6 0.9 0.8
v -1.6 1.2 0.8
v -1.6 1.3 0.8
v -1.6 1.6 0.8
v -1.3 0 0.8
v -1.3 0.1 0.8
v -1.3 0.4 0.8
v -1.3 0.8 0.8
v -1.3 0.9 0.8
v -1.3 1.2 0.8
v -1.3 1.3 0.8
v -1.2 0.1 0.8
v -1.2 0.4 0.8
v -1.2 0.8 0.8
v -1.2 0.9 0.8
v -1.2 1.2 0.8
v -0.9 0.5 0.8
v -0.9 0.8 0.8
v -0.9 1.3 0.8
v -0.9 1.6 0.8
v -0.8 0.5 0.8
v -0.8 0.8 0.8
v -0.8 1.3 0.8
v -0.8 1.6 0.8
v -0.5 0.1 0.8
v -0.5 0.4 0.8
v -0.5 0.9 0.8
v -0.5 1.2 0.8
v -0.4 0.1 0.8
v -0.4 0.4 0.8
v -0.4 0.9 0.8
v -0.4 1.2 0.8
v -0.1 0.5 0.8
v -0.1 0.6 0.8
v -0.1 0.8 0.8
v -0.1 1.3 0.8
v -0.1 1.6 0.8
v 0 0.5 0.8
v 0 0.6 0.8
v 0 0.8 0.8
v 0 1.3 0.8
v 0 1.6 0.8
v 0.2 0.4 0.8
v 0.2 0.5 0.8
v 0.3 0.1 0.8
v 0.3 0.4 0.8
v 0.3 0.9 0.8
v 0.3 1.2 0.8
v 0.4 0.1 0.8
v 0.4 0.4 0.8
v 0.4 0.9 0.8
v 0.4 1.2 0.8
v 0.4 1.3 0.8
v 0.7 0.5 0.8
v 0.7 0.8 0.8
v 0.7 1.2 0.8
v 0.7 1.3 0.8
v 0.7 1.5 0.8
v 0.7 1.6 0.8
v 0.8 0.5 0.8
v 0.8 0.8 0.8
v 0.8 1.3 0.8
v 0.8 1.5 0.8
v 0.8 1.6 0.8
v 1.4 1.2 0.8
v 1.4 1.3 0.8
v 1.5 0.5 0.8
v 1.5 0.7 0.8
v 1.5 0.8 0.8
v 1.5 0.9 0.8
v 1.5 1.3 0.8
v 1.5 1.6 0.8
v 1.6 0 0.8
v 1.6 0.1 0.8
v 1.6 0.4 0.8
v 1.6 0.5 0.8
v 1.6 0.7 0.8
v 1.6 0.8 0.8
v 1.6 0.9 0.8
v 1.6 1.2 0.8
v 1.6 1.6 0.8
v -1.6 0 0.4
v -1.6 0.1 0.4
v -1.6 0.4 0.4
v -1.6 0.5 0.4
v -1.6 0.8 0.4
v -1.6 0.9 0.4
v -1.6 1.2 0.4
v -1.6 1.3 0.4
v -1.6 1.6 0.4
v -1.3 0 0.4
v -1.3 0.1 0.4
v -1.3 0.4 0.4
v -1.3 0.8 0.4
v -1.3 0.9 0.4
v -1.3 1.2 0.4
v -1.3 1.3 0.4
v -1.2 0.1 0.4
v -1.2 0.4 0.4
v -1.2 0.8 0.4
v -1.2 0.9 0.4
v -1.2 1.2 0.4
v -0.9 0.5 0.4
v -0.9 0.8 0.4
v -0.9 1.3 0.4
v -0.9 1.6 0.4
v -0.8 0.5 0.4
v -0.8 0.8 0.4
v -0.8 1.3 0.4
v -0.8 1.6 0.4
v -0.5 0.1 0.4
v -0.5 0.4 0.4
v -0.5 0.9 0.4
v -0.5 1.2 0.4
v -0.4 0.1 0.4
v -0.4 0.4 0.4
v -0.4 0.9 0.4
v -0.4 1.2 0.4
v -0.1 0.5 0.4
v -0.1 0.6 0.4
v -0.1 0.8 0.4
v -0.1 1.3 0.4
v -0.1 1.6 0.4
v 0 0.5 0.4
v 0 0.6 0.4
v 0 0.8 0.4
v 0 1.3 0.4
v 0 1.6 0.4
v 0.2 0.4 0.4
v 0.2 0.5 0.4
v 0.3 0.1 0.4
v 0.3 0.4 0.4
v 0.3 0.9 0.4
v 0.3 1.2 0.4
v 0.4 0.1 0.4
v 0.4 0.4 0.4
v 0.4 0.9 0.4
v 0.4 1.2 0.4
v 0.4 1.3 0.4
v 0.7 0.5 0.4
v 0.7 0.8 0.4
v 0.7 1.2 0.4
v 0.7 1.3 0.4
v 0.7 1.5 0.4
v 0.7 1.6 0.4
v 0.8 0.5 0.4
v 0.8 0.8 0.4
v 0.8 1.3 0.4
v 0.8 1.5 0.4
v 0.8 1.6 0.4
v 1.4 1.2 0.4
v 1.4 1.3 0.4
v 1.5 0.5 0.4
v 1.5 0.7 0.4
v 1.5 0.8 0.4
v 1.5 0.9 0.4
v 1.5 1.3 0.4
v 1.5 1.6 0.4
v 1.6 0 0.4
v 1.6 0.1 0.4
v 1.6 0.4 0.4
v 1.6 0.5 0.4
v 1.6 0.7 0.4
v 1.6 0.8 0.4
v 1.6 0.9 0.4
v 1.6 1.2 0.4
v 1.6 1.6 0.4
v -1.6 0 0.8
v -1.3 0 0.8
v 1.6 0 0.8
v -1.6 0 0.4
v -1.3 0 0.4
v 1.6 0 0.4
v -1.6 1.6 0.8
v -0.9 1.6 0.8
v -0.8 1.6 0.8
v -0.1 1.6 0.8
v 0 1.6 0.8
v 0.7 1.6 0.8
v 0.8 1.6 0.8
v 1.5 1.6 0.8
v 1.6 1.6 0.8
v -1.6 1.6 0.4
v -0.9 1.6 0.4
v -0.8 1.6 0.4
v -0.1 1.6 0.4
v 0 1.6 0.4
v 0.7 1.6 0.4
v 0.8 1.6 0.4
v 1.5 1.6 0.4
v 1.6 1.6 0.4

# faces
f 3/3/1 2/3/1 1/3/1
f 4/3/1 2/3/1 3/3/1
f 5/1/1 4/1/1 3/1/1
f 6/1/1 4/1/1 5/1/1
f 7/4/1 6/4/1 5/4/1
f 8/4/1 6/4/1 7/4/1
f 9/2/1 8/2/1 7/2/1
f 10/2/1 8/2/1 9/2/1
f 11/3/1 10/3/1 9/3/1
f 12/3/1 10/3/1 11/3/1
f 13/2/1 12/2/1 11/2/1
f 14/2/1 12/2/1 13/2/1
f 15/3/1 14/3/1 13/3/1
f 16/3/1 14/3/1 15/3/1
f 17/5/1 16/5/1 15/5/1
f 18/5/1 16/5/1 17/5/1
f 19/4/2 20/4/2 21/4/2
f 21/4/2 20/4/2 22/4/2
f 21/1/2 22/1/2 23/1/2
f 23/1/2 22/1/2 24/1/2
f 23/3/2 24/3/2 25/3/2
f 25/3/2 24/3/2 26/3/2
f 25/4/2 26/4/2 27/4/2
f 27/4/2 26/4/2 28/4/2
f 27/3/2 28/3/2 29/3/2
f 29/3/2 28/3/2 30/3/2
f 29/4/2 30/4/2 31/4/2
f 31/4/2 30/4/2 32/4/2
f 31/2/2 32/2/2 33/2/2
f 33/2/2 32/2/2 34/2/2
f 33/3/2 34/3/2 35/3/2
f 35/3/2 34/3/2 36/3/2
f 46/3/3 38/3/3 37/3/3
f 47/1/3 39/1/3 38/1/3
f 47/3/3 38/3/3 46/3/3
f 48/4/3 40/4/3 39/4/3
f 48/1/3 39/1/3 47/1/3
f 49/2/3 41/2/3 40/2/3
f 49/3/3 42/3/3 41/3/3
f 50/2/3 43/2/3 42/2/3
f 50/3/3 42/3/3 49/3/3
f 51/3/3 44/3/3 43/3/3
f 51/2/3 43/2/3 50/2/3
f 52/5/3 45/5/3 44/5/3
f 52/3/3 44/3/3 51/3/3
f 53/4/3 47/4/3 46/4/3
f 53/4/3 48/4/3 47/4/3
f 54/4/3 40/4/3 48/4/3
f 54/4/3 48/4/3 53/4/3
f 55/4/3 51/4/3 50/4/3
f 55/4/3 52/4/3 51/4/3
f 55/2/3 49/2/3 40/2/3
f 55/4/3 50/4/3 49/4/3
f 56/4/3 52/4/3 55/4/3
f 57/4/3 52/4/3 56/4/3
f 58/4/3 40/4/3 54/4/3
f 58/2/3 55/2/3 40/2/3
f 59/3/3 56/3/3 55/3/3
f 59/2/3 55/2/3 58/2/3
f 60/4/3 52/4/3 57/4/3
f 60/5/3 45/5/3 52/5/3
f 61/5/3 45/5/3 60/5/3
f 62/3/3 59/3/3 58/3/3
f 62/4/3 58/4/3 54/4/3
f 63/3/3 56/3/3 59/3/3
f 63/3/3 59/3/3 62/3/3
f 64/3/3 61/3/3 60/3/3
f 64/4/3 60/4/3 57/4/3
f 65/3/3 61/3/3 64/3/3
f 66/4/3 53/4/3 46/4/3
f 66/5/3 54/5/3 53/5/3
f 67/4/3 62/4/3 54/4/3
f 67/5/3 54/5/3 66/5/3
f 68/1/3 57/1/3 56/1/3
f 68/3/3 56/3/3 63/3/3
f 69/4/3 64/4/3 57/4/3
f 69/1/3 57/1/3 68/1/3
f 70/4/3 66/4/3 46/4/3
f 70/3/3 67/3/3 66/3/3
f 71/4/3 62/4/3 67/4/3
f 71/3/3 67/3/3 70/3/3
f 72/3/3 69/3/3 68/3/3
f 72/3/3 68/3/3 63/3/3
f 73/4/3 64/4/3 69/4/3
f 73/3/3 69/3/3 72/3/3
f 74/4/3 62/4/3 71/4/3
f 74/2/3 63/2/3 62/2/3
f 75/2/3 63/2/3 74/2/3
f 76/3/3 72/3/3 63/3/3
f 76/2/3 63/2/3 75/2/3
f 77/2/3 65/2/3 64/2/3
f 77/4/3 64/4/3 73/4/3
f 78/2/3 65/2/3 77/2/3
f 79/4/3 75/4/3 74/4/3
f 79/4/3 74/4/3 71/4/3
f 80/3/3 76/3/3 75/3/3
f 80/4/3 75/4/3 79/4/3
f 81/3/3 72/3/3 76/3/3
f 81/3/3 76/3/3 80/3/3
f 82/3/3 78/3/3 77/3/3
f 82/4/3 77/4/3 73/4/3
f 83/3/3 78/3/3 82/3/3
f 84/4/3 79/4/3 71/4/3
f 84/2/3 71/2/3 70/2/3
f 85/1/3 80/1/3 79/1/3
f 85/4/3 79/4/3 84/4/3
f 85/1/3 81/1/3 80/1/3
f 86/2/3 84/2/3 70/2/3
f 86/4/3 70/4/3 46/4/3
f 87/3/3 85/3/3 84/3/3
f 87/2/3 84/2/3 86/2/3
f 88/5/3 73/5/3 72/5/3
f 88/3/3 72/3/3 81/3/3
f 89/4/3 82/4/3 73/4/3
f 89/5/3 73/5/3 88/5/3
f 90/4/3 86/4/3 46/4/3
f 90/3/3 87/3/3 86/3/3
f 91/3/3 85/3/3 87/3/3
f 91/3/3 87/3/3 90/3/3
f 92/4/3 89/4/3 88/4/3
f 92/3/3 88/3/3 81/3/3
f 93/4/3 82/4/3 89/4/3
f 93/4/3 89/4/3 92/4/3
f 94/6/3 83/6/3 82/6/3
f 94/4/3 82/4/3 93/4/3
f 95/1/3 81/1/3 85/1/3
f 95/3/3 85/3/3 91/3/3
f 96/3/3 92/3/3 81/3/3
f 96/1/3 81/1/3 95/1/3
f 97/2/3 93/2/3 92/2/3
f 97/3/3 94/3/3 93/3/3
f 98/6/3 83/6/3 94/6/3
f 98/3/3 94/3/3 97/3/3
f 99/6/3 83/6/3 98/6/3
f 100/6/3 83/6/3 99/6/3
f 101/3/3 95/3/3 91/3/3
f 101/3/3 96/3/3 95/3/3
f 102/3/3 92/3/3 96/3/3
f 102/3/3 96/3/3 101/3/3
f 103/4/3 98/4/3 97/4/3
f 103/4/3 99/4/3 98/4/3
f 104/3/3 100/3/3 99/3/3
f 104/4/3 99/4/3 103/4/3
f 105/3/3 100/3/3 104/3/3
f 106/2/3 97/2/3 92/2/3
f 106/4/3 103/4/3 97/4/3
f 107/1/3 105/1/3 104/1/3
f 107/4/3 103/4/3 106/4/3
f 107/1/3 104/1/3 103/1/3
f 108/3/3 101/3/3 91/3/3
f 108/2/3 102/2/3 101/2/3
f 109/2/3 102/2/3 108/2/3
f 110/3/3 92/3/3 102/3/3
f 110/2/3 102/2/3 109/2/3
f 111/2/3 106/2/3 92/2/3
f 111/3/3 92/3/3 110/3/3
f 112/1/3 105/1/3 107/1/3
f 112/3/3 107/3/3 106/3/3
f 113/1/3 105/1/3 112/1/3
f 114/4/3 90/4/3 46/4/3
f 115/1/3 91/1/3 90/1/3
f 115/4/3 90/4/3 114/4/3
f 116/3/3 108/3/3 91/3/3
f 116/1/3 91/1/3 115/1/3
f 117/4/3 109/4/3 108/4/3
f 117/3/3 108/3/3 116/3/3
f 118/3/3 110/3/3 109/3/3
f 118/4/3 109/4/3 117/4/3
f 119/4/3 111/4/3 110/4/3
f 119/3/3 110/3/3 118/3/3
f 120/2/3 106/2/3 111/2/3
f 120/4/3 111/4/3 119/4/3
f 121/3/3 112/3/3 106/3/3
f 121/2/3 106/2/3 120/2/3
f 121/3/3 113/3/3 112/3/3
f 122/3/3 113/3/3 121/3/3
f 123/3/4 124/3/4 132/3/4
f 124/1/4 125/1/4 133/1/4
f 132/3/4 124/3/4 133/3/4
f 125/4/4 126/4/4 134/4/4
f 133/1/4 125/1/4 134/1/4
f 126/2/4 127/2/4 135/2/4
f 127/3/4 128/3/4 135/3/4
f 128/2/4 129/2/4 136/2/4
f 135/3/4 128/3/4 136/3/4
f 129/3/4 130/3/4 137/3/4
f 136/2/4 129/2/4 137/2/4
f 130/5/4 131/5/4 138/5/4
f 137/3/4 130/3/4 138/3/4
f 132/4/4 133/4/4 139/4/4
f 133/4/4 134/4/4 139/4/4
f 134/4/4 126/4/4 140/4/4
f 139/4/4 134/4/4 140/4/4
f 136/4/4 137/4/4 141/4/4
f 137/4/4 138/4/4 141/4/4
f 126/2/4 135/2/4 141/2/4
f 135/4/4 136/4/4 141/4/4
f 141/4/4 138/4/4 142/4/4
f 142/4/4 138/4/4 143/4/4
f 140/4/4 126/4/4 144/4/4
f 126/2/4 141/2/4 144/2/4
f 141/3/4 142/3/4 145/3/4
f 144/2/4 141/2/4 145/2/4
f 143/4/4 138/4/4 146/4/4
f 138/5/4 131/5/4 146/5/4
f 146/5/4 131/5/4 147/5/4
f 144/3/4 145/3/4 148/3/4
f 140/4/4 144/4/4 148/4/4
f 145/3/4 142/3/4 149/3/4
f 148/3/4 145/3/4 149/3/4
f 146/3/4 147/3/4 150/3/4
f 143/4/4 146/4/4 150/4/4
f 150/3/4 147/3/4 151/3/4
f 132/4/4 139/4/4 152/4/4
f 139/5/4 140/5/4 152/5/4
f 140/4/4 148/4/4 153/4/4
f 152/5/4 140/5/4 153/5/4
f 142/1/4 143/1/4 154/1/4
f 149/3/4 142/3/4 154/3/4
f 143/4/4 150/4/4 155/4/4
f 154/1/4 143/1/4 155/1/4
f 132/4/4 152/4/4 156/4/4
f 152/3/4 153/3/4 156/3/4
f 153/4/4 148/4/4 157/4/4
f 156/3/4 153/3/4 157/3/4
f 154/3/4 155/3/4 158/3/4
f 149/3/4 154/3/4 158/3/4
f 155/4/4 150/4/4 159/4/4
f 158/3/4 155/3/4 159/3/4
f 157/4/4 148/4/4 160/4/4
f 148/2/4 149/2/4 160/2/4
f 160/2/4 149/2/4 161/2/4
f 149/3/4 158/3/4 162/3/4
f 161/2/4 149/2/4 162/2/4
f 150/2/4 151/2/4 163/2/4
f 159/4/4 150/4/4 163/4/4
f 163/2/4 151/2/4 164/2/4
f 160/4/4 161/4/4 165/4/4
f 157/4/4 160/4/4 165/4/4
f 161/3/4 162/3/4 166/3/4
f 165/4/4 161/4/4 166/4/4
f 162/3/4 158/3/4 167/3/4
f 166/3/4 162/3/4 167/3/4
f 163/3/4 164/3/4 168/3/4
f 159/4/4 163/4/4 168/4/4
f 168/3/4 164/3/4 169/3/4
f 157/4/4 165/4/4 170/4/4
f 156/2/4 157/2/4 170/2/4
f 165/1/4 166/1/4 171/1/4
f 170/4/4 165/4/4 171/4/4
f 166/1/4 167/1/4 171/1/4
f 156/2/4 170/2/4 172/2/4
f 132/4/4 156/4/4 172/4/4
f 170/3/4 171/3/4 173/3/4
f 172/2/4 170/2/4 173/2/4
f 158/5/4 159/5/4 174/5/4
f 167/3/4 158/3/4 174/3/4
f 159/4/4 168/4/4 175/4/4
f 174/5/4 159/5/4 175/5/4
f 132/4/4 172/4/4 176/4/4
f 172/3/4 173/3/4 176/3/4
f 173/3/4 171/3/4 177/3/4
f 176/3/4 173/3/4 177/3/4
f 174/4/4 175/4/4 178/4/4
f 167/3/4 174/3/4 178/3/4
f 175/4/4 168/4/4 179/4/4
f 178/4/4 175/4/4 179/4/4
f 168/6/4 169/6/4 180/6/4
f 179/4/4 168/4/4 180/4/4
f 171/1/4 167/1/4 181/1/4
f 177/3/4 171/3/4 181/3/4
f 167/3/4 178/3/4 182/3/4
f 181/1/4 167/1/4 182/1/4
f 178/2/4 179/2/4 183/2/4
f 179/3/4 180/3/4 183/3/4
f 180/6/4 169/6/4 184/6/4
f 183/3/4 180/3/4 184/3/4
f 184/6/4 169/6/4 185/6/4
f 185/6/4 169/6/4 186/6/4
f 177/3/4 181/3/4 187/3/4
f 181/3/4 182/3/4 187/3/4
f 182/3/4 178/3/4 188/3/4
f 187/3/4 182/3/4 188/3/4
f 183/4/4 184/4/4 189/4/4
f 184/4/4 185/4/4 189/4/4
f 185/3/4 186/3/4 190/3/4
f 189/4/4 185/4/4 190/4/4
f 190/3/4 186/3/4 191/3/4
f 178/2/4 183/2/4 192/2/4
f 183/4/4 189/4/4 192/4/4
f 190/1/4 191/1/4 193/1/4
f 192/4/4 189/4/4 193/4/4
f 189/1/4 190/1/4 193/1/4
f 177/3/4 187/3/4 194/3/4
f 187/2/4 188/2/4 194/2/4
f 194/2/4 188/2/4 195/2/4
f 188/3/4 178/3/4 196/3/4
f 195/2/4 188/2/4 196/2/4
f 178/2/4 192/2/4 197/2/4
f 196/3/4 178/3/4 197/3/4
f 193/1/4 191/1/4 198/1/4
f 192/3/4 193/3/4 198/3/4
f 198/1/4 191/1/4 199/1/4
f 132/4/4 176/4/4 200/4/4
f 176/1/4 177/1/4 201/1/4
f 200/4/4 176/4/4 201/4/4
f 177/3/4 194/3/4 202/3/4
f 201/1/4 177/1/4 202/1/4
f 194/4/4 195/4/4 203/4/4
f 202/3/4 194/3/4 203/3/4
f 195/3/4 196/3/4 204/3/4
f 203/4/4 195/4/4 204/4/4
f 196/4/4 197/4/4 205/4/4
f 204/3/4 196/3/4 205/3/4
f 197/2/4 192/2/4 206/2/4
f 205/4/4 197/4/4 206/4/4
f 192/3/4 198/3/4 207/3/4
f 206/2/4 192/2/4 207/2/4
f 198/3/4 199/3/4 207/3/4
f 207/3/4 199/3/4 208/3/4
f 212/3/5 210/3/5 209/3/5
f 213/4/5 211/4/5 210/4/5
f 213/3/5 210/3/5 212/3/5
f 214/4/5 211/4/5 213/4/5
f 215/5/6 216/5/6 224/5/6
f 216/3/6 217/3/6 225/3/6
f 224/5/6 216/5/6 225/5/6
f 217/2/6 218/2/6 226/2/6
f 225/3/6 217/3/6 226/3/6
f 218/3/6 219/3/6 227/3/6
f 226/2/6 218/2/6 227/2/6
f 219/6/6 220/6/6 228/6/6
f 227/3/6 219/3/6 228/3/6
f 220/3/6 221/3/6 229/3/6
f 228/6/6 220/6/6 229/6/6
f 221/1/6 222/1/6 230/1/6
f 229/3/6 221/3/6 230/3/6
f 222/3/6 223/3/6 231/3/6
f 230/1/6 222/1/6 231/1/6
f 231/3/6 223/3/6 232/3/6
