# MagicaVoxel @ Ephtracy

# group
o 

# material
mtllib Car park Tiles-1.mtl
usemtl palette

# normals
vn -1 0 0
vn 1 0 0
vn 0 0 1
vn 0 0 -1
vn 0 -1 0
vn 0 1 0

# texcoords
vt 0.0878906 0.5
vt 0.0917969 0.5

# verts
v -1.6 -0.1 1.6
v -1.6 -0.1 -1.6
v -1.6 0.1 1.6
v -1.6 0.1 -1.6
v 1.6 -0.1 1.6
v 1.6 -0.1 -1.6
v 1.6 0 0.1
v 1.6 0 -0.1
v 1.6 0.1 1.6
v 1.6 0.1 0.1
v 1.6 0.1 -0.1
v 1.6 0.1 -1.6
v -1.6 -0.1 1.6
v -1.6 0.1 1.6
v 1.6 -0.1 1.6
v 1.6 0.1 1.6
v -1.6 -0.1 -1.6
v -1.6 0.1 -1.6
v 1.6 -0.1 -1.6
v 1.6 0.1 -1.6
v -1.6 -0.1 1.6
v 1.6 -0.1 1.6
v -1.6 -0.1 -1.6
v 1.6 -0.1 -1.6
v -1.6 0.1 1.6
v 1.6 0.1 1.6
v -0.1 0.1 0.9
v 0.1 0.1 0.9
v 1 0.1 0.9
v 1.2 0.1 0.9
v 0.1 0.1 0.1
v 1 0.1 0.1
v 1.2 0.1 0.1
v 1.6 0.1 0.1
v 0.1 0.1 -0.1
v 1 0.1 -0.1
v 1.2 0.1 -0.1
v 1.6 0.1 -0.1
v -0.1 0.1 -0.9
v 0.1 0.1 -0.9
v 1 0.1 -0.9
v 1.2 0.1 -0.9
v -1.6 0.1 -1.6
v 1.6 0.1 -1.6

# faces
f 3/1/1 2/1/1 1/1/1
f 4/1/1 2/1/1 3/1/1
f 5/1/2 6/1/2 7/1/2
f 7/1/2 6/1/2 8/1/2
f 5/1/2 7/1/2 9/1/2
f 7/2/2 8/2/2 10/2/2
f 9/1/2 7/1/2 10/1/2
f 8/1/2 6/1/2 11/1/2
f 10/2/2 8/2/2 11/2/2
f 11/1/2 6/1/2 12/1/2
f 15/1/3 14/1/3 13/1/3
f 16/1/3 14/1/3 15/1/3
f 17/1/4 18/1/4 19/1/4
f 19/1/4 18/1/4 20/1/4
f 23/1/5 22/1/5 21/1/5
f 24/1/5 22/1/5 23/1/5
f 25/1/6 26/1/6 27/1/6
f 27/1/6 26/1/6 28/1/6
f 28/1/6 26/1/6 29/1/6
f 29/1/6 26/1/6 30/1/6
f 27/2/6 28/2/6 31/2/6
f 28/1/6 29/1/6 31/1/6
f 29/2/6 30/2/6 32/2/6
f 31/1/6 29/1/6 32/1/6
f 30/1/6 26/1/6 33/1/6
f 32/2/6 30/2/6 33/2/6
f 33/1/6 26/1/6 34/1/6
f 31/2/6 32/2/6 35/2/6
f 27/2/6 31/2/6 35/2/6
f 33/2/6 34/2/6 35/2/6
f 32/2/6 33/2/6 35/2/6
f 35/2/6 34/2/6 36/2/6
f 36/2/6 34/2/6 37/2/6
f 37/2/6 34/2/6 38/2/6
f 25/1/6 27/1/6 39/1/6
f 27/2/6 35/2/6 39/2/6
f 35/1/6 36/1/6 40/1/6
f 39/2/6 35/2/6 40/2/6
f 36/2/6 37/2/6 41/2/6
f 40/1/6 36/1/6 41/1/6
f 37/1/6 38/1/6 42/1/6
f 41/2/6 37/2/6 42/2/6
f 40/1/6 41/1/6 43/1/6
f 25/1/6 39/1/6 43/1/6
f 41/1/6 42/1/6 43/1/6
f 39/1/6 40/1/6 43/1/6
f 42/1/6 38/1/6 44/1/6
f 43/1/6 42/1/6 44/1/6
