# MagicaVoxel @ Ephtracy

# group
o 

# material
mtllib Pavement with Curb.mtl
usemtl palette

# normals
vn -1 0 0
vn 1 0 0
vn 0 0 1
vn 0 0 -1
vn 0 -1 0
vn 0 1 0

# texcoords
vt 0.00195313 0.5
vt 0.00585938 0.5
vt 0.00976563 0.5
vt 0.0136719 0.5
vt 0.0175781 0.5
vt 0.0214844 0.5
vt 0.0253906 0.5
vt 0.0292969 0.5
vt 0.0566406 0.5
vt 0.0605469 0.5

# verts
v -1.6 0 1.6
v -1.6 0 1.1
v -1.6 0 1
v -1.6 0 0.5
v -1.6 0 0.4
v -1.6 0 -0.2
v -1.6 0 -0.3
v -1.6 0 -1
v -1.6 0 -1.1
v -1.6 0 -1.6
v -1.6 0.2 1.6
v -1.6 0.2 1.1
v -1.6 0.2 1
v -1.6 0.2 0.5
v -1.6 0.2 0.4
v -1.6 0.2 -0.2
v -1.6 0.2 -0.3
v -1.6 0.2 -1
v -1.6 0.2 -1.1
v -1.6 0.2 -1.6
v 1.6 0 1.6
v 1.6 0 -1.6
v 1.6 0.2 1.6
v 1.6 0.2 -1.6
v -1.6 0 1.6
v -1.6 0.2 1.6
v -1 0 1.6
v -1 0.2 1.6
v -0.8 0 1.6
v -0.8 0.2 1.6
v 1.3 0 1.6
v 1.3 0.2 1.6
v 1.6 0 1.6
v 1.6 0.2 1.6
v -1.6 0 -1.6
v -1.6 0.2 -1.6
v -0.2 0 -1.6
v -0.2 0.2 -1.6
v -0.1 0 -1.6
v -0.1 0.2 -1.6
v 1.3 0 -1.6
v 1.3 0.2 -1.6
v 1.6 0 -1.6
v 1.6 0.2 -1.6
v -1.6 0 1.6
v -1 0 1.6
v -0.8 0 1.6
v 1.3 0 1.6
v 1.6 0 1.6
v -1.6 0 1.1
v -1 0 1.1
v -0.8 0 1.1
v 1.3 0 1.1
v -1.6 0 1
v -0.2 0 1
v -0.1 0 1
v 1.3 0 1
v -1.6 0 0.5
v -0.2 0 0.5
v -0.1 0 0.5
v 1.3 0 0.5
v -1.6 0 0.4
v -0.3 0 0.4
v -0.1 0 0.4
v 1.3 0 0.4
v -1.6 0 -0.2
v -0.3 0 -0.2
v -0.1 0 -0.2
v 1.3 0 -0.2
v -1.6 0 -0.3
v -1 0 -0.3
v -0.8 0 -0.3
v 1.3 0 -0.3
v -1.6 0 -1
v -1 0 -1
v -0.8 0 -1
v 1.3 0 -1
v -1.6 0 -1.1
v -0.2 0 -1.1
v -0.1 0 -1.1
v 1.3 0 -1.1
v -1.6 0 -1.6
v -0.2 0 -1.6
v -0.1 0 -1.6
v 1.3 0 -1.6
v 1.6 0 -1.6
v -1.6 0.2 1.6
v -1 0.2 1.6
v -0.8 0.2 1.6
v 1.3 0.2 1.6
v 1.6 0.2 1.6
v -1.6 0.2 1.1
v -1 0.2 1.1
v -0.8 0.2 1.1
v 1.3 0.2 1.1
v -1.6 0.2 1
v -0.2 0.2 1
v -0.1 0.2 1
v 1.3 0.2 1
v -1.6 0.2 0.5
v -0.2 0.2 0.5
v -0.1 0.2 0.5
v 1.3 0.2 0.5
v -1.6 0.2 0.4
v -0.3 0.2 0.4
v -0.1 0.2 0.4
v 1.3 0.2 0.4
v -1.6 0.2 -0.2
v -0.3 0.2 -0.2
v -0.1 0.2 -0.2
v 1.3 0.2 -0.2
v -1.6 0.2 -0.3
v -1 0.2 -0.3
v -0.8 0.2 -0.3
v 1.3 0.2 -0.3
v -1.6 0.2 -1
v -1 0.2 -1
v -0.8 0.2 -1
v 1.3 0.2 -1
v -1.6 0.2 -1.1
v -0.2 0.2 -1.1
v -0.1 0.2 -1.1
v 1.3 0.2 -1.1
v -1.6 0.2 -1.6
v -0.2 0.2 -1.6
v -0.1 0.2 -1.6
v 1.3 0.2 -1.6
v 1.6 0.2 -1.6

# faces
f 11/9/1 2/9/1 1/9/1
f 12/1/1 3/1/1 2/1/1
f 12/9/1 2/9/1 11/9/1
f 13/8/1 4/8/1 3/8/1
f 13/1/1 3/1/1 12/1/1
f 14/1/1 5/1/1 4/1/1
f 14/8/1 4/8/1 13/8/1
f 15/7/1 6/7/1 5/7/1
f 15/1/1 5/1/1 14/1/1
f 16/1/1 7/1/1 6/1/1
f 16/7/1 6/7/1 15/7/1
f 17/6/1 8/6/1 7/6/1
f 17/1/1 7/1/1 16/1/1
f 18/1/1 9/1/1 8/1/1
f 18/6/1 8/6/1 17/6/1
f 19/3/1 10/3/1 9/3/1
f 19/1/1 9/1/1 18/1/1
f 20/3/1 10/3/1 19/3/1
f 21/2/2 22/2/2 23/2/2
f 23/2/2 22/2/2 24/2/2
f 27/9/3 26/9/3 25/9/3
f 28/9/3 26/9/3 27/9/3
f 29/1/3 28/1/3 27/1/3
f 30/1/3 28/1/3 29/1/3
f 31/5/3 30/5/3 29/5/3
f 32/5/3 30/5/3 31/5/3
f 33/2/3 32/2/3 31/2/3
f 34/2/3 32/2/3 33/2/3
f 35/3/4 36/3/4 37/3/4
f 37/3/4 36/3/4 38/3/4
f 37/1/4 38/1/4 39/1/4
f 39/1/4 38/1/4 40/1/4
f 39/4/4 40/4/4 41/4/4
f 41/4/4 40/4/4 42/4/4
f 41/2/4 42/2/4 43/2/4
f 43/2/4 42/2/4 44/2/4
f 50/9/5 46/9/5 45/9/5
f 51/1/5 47/1/5 46/1/5
f 51/9/5 46/9/5 50/9/5
f 52/5/5 48/5/5 47/5/5
f 52/1/5 47/1/5 51/1/5
f 53/2/5 49/2/5 48/2/5
f 53/5/5 48/5/5 52/5/5
f 54/1/5 52/1/5 51/1/5
f 54/1/5 51/1/5 50/1/5
f 54/1/5 53/1/5 52/1/5
f 55/1/5 53/1/5 54/1/5
f 56/1/5 53/1/5 55/1/5
f 57/2/5 49/2/5 53/2/5
f 57/1/5 53/1/5 56/1/5
f 58/8/5 55/8/5 54/8/5
f 59/1/5 56/1/5 55/1/5
f 59/8/5 55/8/5 58/8/5
f 60/10/5 57/10/5 56/10/5
f 60/1/5 56/1/5 59/1/5
f 61/2/5 49/2/5 57/2/5
f 61/10/5 57/10/5 60/10/5
f 62/1/5 60/1/5 59/1/5
f 62/1/5 59/1/5 58/1/5
f 62/1/5 61/1/5 60/1/5
f 63/1/5 61/1/5 62/1/5
f 64/1/5 61/1/5 63/1/5
f 65/2/5 49/2/5 61/2/5
f 65/1/5 61/1/5 64/1/5
f 66/7/5 63/7/5 62/7/5
f 67/1/5 64/1/5 63/1/5
f 67/7/5 63/7/5 66/7/5
f 68/6/5 65/6/5 64/6/5
f 68/1/5 64/1/5 67/1/5
f 69/2/5 49/2/5 65/2/5
f 69/6/5 65/6/5 68/6/5
f 70/1/5 68/1/5 67/1/5
f 70/1/5 67/1/5 66/1/5
f 70/1/5 69/1/5 68/1/5
f 71/1/5 69/1/5 70/1/5
f 72/1/5 69/1/5 71/1/5
f 73/2/5 49/2/5 69/2/5
f 73/1/5 69/1/5 72/1/5
f 74/6/5 71/6/5 70/6/5
f 75/1/5 72/1/5 71/1/5
f 75/6/5 71/6/5 74/6/5
f 76/5/5 73/5/5 72/5/5
f 76/1/5 72/1/5 75/1/5
f 77/2/5 49/2/5 73/2/5
f 77/5/5 73/5/5 76/5/5
f 78/1/5 76/1/5 75/1/5
f 78/1/5 75/1/5 74/1/5
f 78/1/5 77/1/5 76/1/5
f 79/1/5 77/1/5 78/1/5
f 80/1/5 77/1/5 79/1/5
f 81/2/5 49/2/5 77/2/5
f 81/1/5 77/1/5 80/1/5
f 82/3/5 79/3/5 78/3/5
f 83/1/5 80/1/5 79/1/5
f 83/3/5 79/3/5 82/3/5
f 84/4/5 81/4/5 80/4/5
f 84/1/5 80/1/5 83/1/5
f 85/2/5 49/2/5 81/2/5
f 85/4/5 81/4/5 84/4/5
f 86/2/5 49/2/5 85/2/5
f 87/9/6 88/9/6 92/9/6
f 88/1/6 89/1/6 93/1/6
f 92/9/6 88/9/6 93/9/6
f 89/5/6 90/5/6 94/5/6
f 93/1/6 89/1/6 94/1/6
f 90/2/6 91/2/6 95/2/6
f 94/5/6 90/5/6 95/5/6
f 93/1/6 94/1/6 96/1/6
f 92/1/6 93/1/6 96/1/6
f 94/1/6 95/1/6 96/1/6
f 96/1/6 95/1/6 97/1/6
f 97/1/6 95/1/6 98/1/6
f 95/2/6 91/2/6 99/2/6
f 98/1/6 95/1/6 99/1/6
f 96/8/6 97/8/6 100/8/6
f 97/1/6 98/1/6 101/1/6
f 100/8/6 97/8/6 101/8/6
f 98/10/6 99/10/6 102/10/6
f 101/1/6 98/1/6 102/1/6
f 99/2/6 91/2/6 103/2/6
f 102/10/6 99/10/6 103/10/6
f 101/1/6 102/1/6 104/1/6
f 100/1/6 101/1/6 104/1/6
f 102/1/6 103/1/6 104/1/6
f 104/1/6 103/1/6 105/1/6
f 105/1/6 103/1/6 106/1/6
f 103/2/6 91/2/6 107/2/6
f 106/1/6 103/1/6 107/1/6
f 104/7/6 105/7/6 108/7/6
f 105/1/6 106/1/6 109/1/6
f 108/7/6 105/7/6 109/7/6
f 106/6/6 107/6/6 110/6/6
f 109/1/6 106/1/6 110/1/6
f 107/2/6 91/2/6 111/2/6
f 110/6/6 107/6/6 111/6/6
f 109/1/6 110/1/6 112/1/6
f 108/1/6 109/1/6 112/1/6
f 110/1/6 111/1/6 112/1/6
f 112/1/6 111/1/6 113/1/6
f 113/1/6 111/1/6 114/1/6
f 111/2/6 91/2/6 115/2/6
f 114/1/6 111/1/6 115/1/6
f 112/6/6 113/6/6 116/6/6
f 113/1/6 114/1/6 117/1/6
f 116/6/6 113/6/6 117/6/6
f 114/5/6 115/5/6 118/5/6
f 117/1/6 114/1/6 118/1/6
f 115/2/6 91/2/6 119/2/6
f 118/5/6 115/5/6 119/5/6
f 117/1/6 118/1/6 120/1/6
f 116/1/6 117/1/6 120/1/6
f 118/1/6 119/1/6 120/1/6
f 120/1/6 119/1/6 121/1/6
f 121/1/6 119/1/6 122/1/6
f 119/2/6 91/2/6 123/2/6
f 122/1/6 119/1/6 123/1/6
f 120/3/6 121/3/6 124/3/6
f 121/1/6 122/1/6 125/1/6
f 124/3/6 121/3/6 125/3/6
f 122/4/6 123/4/6 126/4/6
f 125/1/6 122/1/6 126/1/6
f 123/2/6 91/2/6 127/2/6
f 126/4/6 123/4/6 127/4/6
f 127/2/6 91/2/6 128/2/6
