# MagicaVoxel @ Ephtracy

# group
o 

# material
mtllib pavement curved curb.mtl
usemtl palette

# normals
vn -1 0 0
vn 1 0 0
vn 0 0 1
vn 0 0 -1
vn 0 -1 0
vn 0 1 0

# texcoords
vt 0.00195313 0.5
vt 0.00585938 0.5
vt 0.00976563 0.5
vt 0.0136719 0.5
vt 0.0175781 0.5
vt 0.0214844 0.5
vt 0.0253906 0.5
vt 0.0292969 0.5
vt 0.0566406 0.5
vt 0.0605469 0.5

# verts
v -1.6 0 1.6
v -1.6 0 1.1
v -1.6 0 1
v -1.6 0 0.5
v -1.6 0 0.4
v -1.6 0 -0.2
v -1.6 0 -0.3
v -1.6 0 -1
v -1.6 0 -1.1
v -1.6 0 -1.3
v -1.6 0 -1.6
v -1.6 0.2 1.6
v -1.6 0.2 1.1
v -1.6 0.2 1
v -1.6 0.2 0.5
v -1.6 0.2 0.4
v -1.6 0.2 -0.2
v -1.6 0.2 -0.3
v -1.6 0.2 -1
v -1.6 0.2 -1.1
v -1.6 0.2 -1.3
v -1.6 0.2 -1.6
v 1.6 0 1.6
v 1.6 0 -1.6
v 1.6 0.2 1.6
v 1.6 0.2 -1.6
v -1.6 0 1.6
v -1.6 0.2 1.6
v -1 0 1.6
v -1 0.2 1.6
v -0.8 0 1.6
v -0.8 0.2 1.6
v 1.3 0 1.6
v 1.3 0.2 1.6
v 1.6 0 1.6
v 1.6 0.2 1.6
v -1.6 0 -1.6
v -1.6 0.2 -1.6
v 1.6 0 -1.6
v 1.6 0.2 -1.6
v -1.6 0 1.6
v -1 0 1.6
v -0.8 0 1.6
v 1.3 0 1.6
v 1.6 0 1.6
v -1.6 0 1.1
v -1 0 1.1
v -0.8 0 1.1
v 1.3 0 1.1
v -1.6 0 1
v -0.2 0 1
v -0.1 0 1
v 1.3 0 1
v -1.6 0 0.5
v -0.2 0 0.5
v -0.1 0 0.5
v 1.3 0 0.5
v -1.6 0 0.4
v -0.3 0 0.4
v -0.1 0 0.4
v 1.3 0 0.4
v -1.6 0 -0.2
v -0.3 0 -0.2
v -0.1 0 -0.2
v 1.3 0 -0.2
v -1.6 0 -0.3
v -1 0 -0.3
v -0.8 0 -0.3
v 1.3 0 -0.3
v -1.6 0 -1
v -1 0 -1
v -0.8 0 -1
v 1.3 0 -1
v -1.6 0 -1.1
v -0.2 0 -1.1
v -0.1 0 -1.1
v 1.3 0 -1.1
v -1.6 0 -1.3
v -0.2 0 -1.3
v -0.1 0 -1.3
v 1.3 0 -1.3
v -1.6 0 -1.6
v 1.6 0 -1.6
v -1.6 0.2 1.6
v -1 0.2 1.6
v -0.8 0.2 1.6
v 1.3 0.2 1.6
v 1.6 0.2 1.6
v -1.6 0.2 1.1
v -1 0.2 1.1
v -0.8 0.2 1.1
v 1.3 0.2 1.1
v -1.6 0.2 1
v -0.2 0.2 1
v -0.1 0.2 1
v 1.3 0.2 1
v -1.6 0.2 0.5
v -0.2 0.2 0.5
v -0.1 0.2 0.5
v 1.3 0.2 0.5
v -1.6 0.2 0.4
v -0.3 0.2 0.4
v -0.1 0.2 0.4
v 1.3 0.2 0.4
v -1.6 0.2 -0.2
v -0.3 0.2 -0.2
v -0.1 0.2 -0.2
v 1.3 0.2 -0.2
v -1.6 0.2 -0.3
v -1 0.2 -0.3
v -0.8 0.2 -0.3
v 1.3 0.2 -0.3
v -1.6 0.2 -1
v -1 0.2 -1
v -0.8 0.2 -1
v 1.3 0.2 -1
v -1.6 0.2 -1.1
v -0.2 0.2 -1.1
v -0.1 0.2 -1.1
v 1.3 0.2 -1.1
v -1.6 0.2 -1.3
v -0.2 0.2 -1.3
v -0.1 0.2 -1.3
v 1.3 0.2 -1.3
v -1.6 0.2 -1.6
v 1.6 0.2 -1.6

# faces
f 12/9/1 2/9/1 1/9/1
f 13/1/1 3/1/1 2/1/1
f 13/9/1 2/9/1 12/9/1
f 14/8/1 4/8/1 3/8/1
f 14/1/1 3/1/1 13/1/1
f 15/1/1 5/1/1 4/1/1
f 15/8/1 4/8/1 14/8/1
f 16/7/1 6/7/1 5/7/1
f 16/1/1 5/1/1 15/1/1
f 17/1/1 7/1/1 6/1/1
f 17/7/1 6/7/1 16/7/1
f 18/6/1 8/6/1 7/6/1
f 18/1/1 7/1/1 17/1/1
f 19/1/1 9/1/1 8/1/1
f 19/6/1 8/6/1 18/6/1
f 20/3/1 10/3/1 9/3/1
f 20/1/1 9/1/1 19/1/1
f 21/2/1 11/2/1 10/2/1
f 21/3/1 10/3/1 20/3/1
f 22/2/1 11/2/1 21/2/1
f 23/2/2 24/2/2 25/2/2
f 25/2/2 24/2/2 26/2/2
f 29/9/3 28/9/3 27/9/3
f 30/9/3 28/9/3 29/9/3
f 31/1/3 30/1/3 29/1/3
f 32/1/3 30/1/3 31/1/3
f 33/5/3 32/5/3 31/5/3
f 34/5/3 32/5/3 33/5/3
f 35/2/3 34/2/3 33/2/3
f 36/2/3 34/2/3 35/2/3
f 37/2/4 38/2/4 39/2/4
f 39/2/4 38/2/4 40/2/4
f 46/9/5 42/9/5 41/9/5
f 47/1/5 43/1/5 42/1/5
f 47/9/5 42/9/5 46/9/5
f 48/5/5 44/5/5 43/5/5
f 48/1/5 43/1/5 47/1/5
f 49/2/5 45/2/5 44/2/5
f 49/5/5 44/5/5 48/5/5
f 50/1/5 48/1/5 47/1/5
f 50/1/5 47/1/5 46/1/5
f 50/1/5 49/1/5 48/1/5
f 51/1/5 49/1/5 50/1/5
f 52/1/5 49/1/5 51/1/5
f 53/2/5 45/2/5 49/2/5
f 53/1/5 49/1/5 52/1/5
f 54/8/5 51/8/5 50/8/5
f 55/1/5 52/1/5 51/1/5
f 55/8/5 51/8/5 54/8/5
f 56/10/5 53/10/5 52/10/5
f 56/1/5 52/1/5 55/1/5
f 57/2/5 45/2/5 53/2/5
f 57/10/5 53/10/5 56/10/5
f 58/1/5 56/1/5 55/1/5
f 58/1/5 55/1/5 54/1/5
f 58/1/5 57/1/5 56/1/5
f 59/1/5 57/1/5 58/1/5
f 60/1/5 57/1/5 59/1/5
f 61/2/5 45/2/5 57/2/5
f 61/1/5 57/1/5 60/1/5
f 62/7/5 59/7/5 58/7/5
f 63/1/5 60/1/5 59/1/5
f 63/7/5 59/7/5 62/7/5
f 64/6/5 61/6/5 60/6/5
f 64/1/5 60/1/5 63/1/5
f 65/2/5 45/2/5 61/2/5
f 65/6/5 61/6/5 64/6/5
f 66/1/5 64/1/5 63/1/5
f 66/1/5 63/1/5 62/1/5
f 66/1/5 65/1/5 64/1/5
f 67/1/5 65/1/5 66/1/5
f 68/1/5 65/1/5 67/1/5
f 69/2/5 45/2/5 65/2/5
f 69/1/5 65/1/5 68/1/5
f 70/6/5 67/6/5 66/6/5
f 71/1/5 68/1/5 67/1/5
f 71/6/5 67/6/5 70/6/5
f 72/5/5 69/5/5 68/5/5
f 72/1/5 68/1/5 71/1/5
f 73/2/5 45/2/5 69/2/5
f 73/5/5 69/5/5 72/5/5
f 74/1/5 72/1/5 71/1/5
f 74/1/5 71/1/5 70/1/5
f 74/1/5 73/1/5 72/1/5
f 75/1/5 73/1/5 74/1/5
f 76/1/5 73/1/5 75/1/5
f 77/2/5 45/2/5 73/2/5
f 77/1/5 73/1/5 76/1/5
f 78/3/5 75/3/5 74/3/5
f 79/1/5 76/1/5 75/1/5
f 79/3/5 75/3/5 78/3/5
f 80/4/5 77/4/5 76/4/5
f 80/1/5 76/1/5 79/1/5
f 81/2/5 45/2/5 77/2/5
f 81/4/5 77/4/5 80/4/5
f 82/2/5 80/2/5 79/2/5
f 82/2/5 79/2/5 78/2/5
f 82/2/5 81/2/5 80/2/5
f 83/2/5 45/2/5 81/2/5
f 83/2/5 81/2/5 82/2/5
f 84/9/6 85/9/6 89/9/6
f 85/1/6 86/1/6 90/1/6
f 89/9/6 85/9/6 90/9/6
f 86/5/6 87/5/6 91/5/6
f 90/1/6 86/1/6 91/1/6
f 87/2/6 88/2/6 92/2/6
f 91/5/6 87/5/6 92/5/6
f 90/1/6 91/1/6 93/1/6
f 89/1/6 90/1/6 93/1/6
f 91/1/6 92/1/6 93/1/6
f 93/1/6 92/1/6 94/1/6
f 94/1/6 92/1/6 95/1/6
f 92/2/6 88/2/6 96/2/6
f 95/1/6 92/1/6 96/1/6
f 93/8/6 94/8/6 97/8/6
f 94/1/6 95/1/6 98/1/6
f 97/8/6 94/8/6 98/8/6
f 95/10/6 96/10/6 99/10/6
f 98/1/6 95/1/6 99/1/6
f 96/2/6 88/2/6 100/2/6
f 99/10/6 96/10/6 100/10/6
f 98/1/6 99/1/6 101/1/6
f 97/1/6 98/1/6 101/1/6
f 99/1/6 100/1/6 101/1/6
f 101/1/6 100/1/6 102/1/6
f 102/1/6 100/1/6 103/1/6
f 100/2/6 88/2/6 104/2/6
f 103/1/6 100/1/6 104/1/6
f 101/7/6 102/7/6 105/7/6
f 102/1/6 103/1/6 106/1/6
f 105/7/6 102/7/6 106/7/6
f 103/6/6 104/6/6 107/6/6
f 106/1/6 103/1/6 107/1/6
f 104/2/6 88/2/6 108/2/6
f 107/6/6 104/6/6 108/6/6
f 106/1/6 107/1/6 109/1/6
f 105/1/6 106/1/6 109/1/6
f 107/1/6 108/1/6 109/1/6
f 109/1/6 108/1/6 110/1/6
f 110/1/6 108/1/6 111/1/6
f 108/2/6 88/2/6 112/2/6
f 111/1/6 108/1/6 112/1/6
f 109/6/6 110/6/6 113/6/6
f 110/1/6 111/1/6 114/1/6
f 113/6/6 110/6/6 114/6/6
f 111/5/6 112/5/6 115/5/6
f 114/1/6 111/1/6 115/1/6
f 112/2/6 88/2/6 116/2/6
f 115/5/6 112/5/6 116/5/6
f 114/1/6 115/1/6 117/1/6
f 113/1/6 114/1/6 117/1/6
f 115/1/6 116/1/6 117/1/6
f 117/1/6 116/1/6 118/1/6
f 118/1/6 116/1/6 119/1/6
f 116/2/6 88/2/6 120/2/6
f 119/1/6 116/1/6 120/1/6
f 117/3/6 118/3/6 121/3/6
f 118/1/6 119/1/6 122/1/6
f 121/3/6 118/3/6 122/3/6
f 119/4/6 120/4/6 123/4/6
f 122/1/6 119/1/6 123/1/6
f 120/2/6 88/2/6 124/2/6
f 123/4/6 120/4/6 124/4/6
f 122/2/6 123/2/6 125/2/6
f 121/2/6 122/2/6 125/2/6
f 123/2/6 124/2/6 125/2/6
f 124/2/6 88/2/6 126/2/6
f 125/2/6 124/2/6 126/2/6
